<?xml version="1.0" encoding="UTF-8"?>
<svg id="Layer_1" data-name="Layer 1" xmlns="http://www.w3.org/2000/svg" xmlns:xlink="http://www.w3.org/1999/xlink" viewBox="0 0 1080 1080">
  <defs>
    <style>
      .cls-1 {
        fill: #a9a9ae;
      }

      .cls-2 {
        fill: #a9aaae;
      }

      .cls-3 {
        fill: #3671ad;
      }

      .cls-4 {
        fill: #97989a;
      }

      .cls-5 {
        fill: #377bb2;
      }

      .cls-6 {
        fill: #68676c;
      }

      .cls-7 {
        fill: #919195;
      }

      .cls-8 {
        fill: #010101;
      }

      .cls-9 {
        fill: #cdcdd0;
      }

      .cls-10 {
        fill: #69696e;
      }

      .cls-11 {
        fill: #d9dbdd;
      }

      .cls-12 {
        fill: #0e2a5a;
      }

      .cls-13 {
        fill: #4078a9;
      }

      .cls-14 {
        fill: #79797e;
      }

      .cls-15 {
        fill: #e2e3e5;
      }

      .cls-16 {
        fill: #3c83bb;
      }

      .cls-17 {
        fill: #bbbbbd;
      }

      .cls-18 {
        fill: #a7a8ac;
      }

      .cls-19 {
        fill: #737377;
      }

      .cls-20 {
        fill: #ebecec;
      }

      .cls-21 {
        fill: #3a81b8;
      }

      .cls-22 {
        fill: #858589;
      }

      .cls-23 {
        fill: #275b90;
      }

      .cls-24 {
        fill: #c8c9cb;
      }

      .cls-25 {
        fill: #abacaf;
      }

      .cls-26 {
        fill: #2a6298;
      }

      .cls-27 {
        fill: #0c2553;
      }

      .cls-28 {
        fill: #0d2856;
      }

      .cls-29 {
        fill: #143163;
      }

      .cls-30 {
        fill: #fdfefd;
      }

      .cls-31 {
        fill: #d8d9db;
      }

      .cls-32 {
        fill: #163262;
      }

      .cls-33 {
        fill: #d3d3d6;
      }

      .cls-34 {
        fill: #0c2654;
      }

      .cls-35 {
        fill: #0c2653;
      }

      .cls-36 {
        fill: #000101;
      }

      .cls-37 {
        fill: #003874;
      }

      .cls-38 {
        fill: #143165;
      }

      .cls-39 {
        fill: #dadbdb;
      }

      .cls-40 {
        fill: #122d5a;
      }

      .cls-41 {
        fill: #a2a3a7;
      }

      .cls-42 {
        fill: #c0c1c3;
      }

      .cls-43 {
        fill: #122b58;
      }

      .cls-44 {
        fill: #8c8d92;
      }

      .cls-45 {
        fill: #87888c;
      }

      .cls-46 {
        fill: #25568b;
      }

      .cls-47 {
        fill: #2e69a0;
      }

      .cls-48 {
        fill: #9d9ea2;
      }

      .cls-49 {
        fill: #7e7e83;
      }

      .cls-50 {
        fill: #3570ac;
      }

      .cls-51 {
        fill: #1a4076;
      }

      .cls-52 {
        fill: #000201;
      }

      .cls-53 {
        fill: #a1a2a6;
      }

      .cls-54 {
        fill: #a4a5a9;
      }

      .cls-55 {
        fill: #66656a;
      }

      .cls-56 {
        fill: #3270a6;
      }

      .cls-57 {
        fill: #717075;
      }

      .cls-58 {
        fill: #838487;
      }

      .cls-59 {
        fill: #0d2b60;
      }

      .cls-60 {
        fill: #5c5c60;
      }

      .cls-61 {
        fill: #0b2654;
      }

      .cls-62 {
        fill: #b6b7b9;
      }

      .cls-63 {
        fill: #26588e;
      }

      .cls-64 {
        fill: #8a8b90;
      }

      .cls-65 {
        fill: #133164;
      }

      .cls-66 {
        fill: #c0c1c4;
      }

      .cls-67 {
        fill: #d9dadb;
      }

      .cls-68 {
        fill: #3e8cc5;
      }

      .cls-69 {
        fill: #133165;
      }

      .cls-70 {
        fill: #143164;
      }

      .cls-71 {
        fill: #555855;
      }

      .cls-72 {
        fill: #dbdbde;
      }

      .cls-73 {
        fill: #5b5a5f;
      }

      .cls-74 {
        fill: #8f9094;
      }

      .cls-75 {
        fill: #3571ae;
      }

      .cls-76 {
        fill: #747575;
      }

      .cls-77 {
        fill: url(#Degradado_sin_nombre_16);
      }

      .cls-78 {
        fill: url(#Degradado_sin_nombre_18);
      }

      .cls-79 {
        fill: #95979a;
      }

      .cls-80 {
        fill: #356fad;
      }

      .cls-81 {
        fill: #cbcbce;
      }

      .cls-82 {
        fill: #7a797e;
      }

      .cls-83 {
        fill: #133065;
      }

      .cls-84 {
        fill: #0c2755;
      }

      .cls-85 {
        fill: #7d7d82;
      }

      .cls-86 {
        fill: #8b8c90;
      }

      .cls-87 {
        fill: #989998;
      }

      .cls-88 {
        fill: #153367;
      }

      .cls-89 {
        fill: #3673ae;
      }

      .cls-90 {
        fill: #0d2654;
      }

      .cls-91 {
        fill: #b4b5b8;
      }

      .cls-92 {
        fill: #7c7d81;
      }

      .cls-93 {
        fill: #b5b6b8;
      }

      .cls-94 {
        fill: #c7c8cb;
      }

      .cls-95 {
        fill: #7b7b7f;
      }

      .cls-96 {
        fill: #3672ad;
      }

      .cls-97 {
        fill: #020404;
      }

      .cls-98 {
        fill: #133063;
      }

      .cls-99 {
        fill: #9a9b9f;
      }

      .cls-100 {
        fill: #143063;
      }

      .cls-101 {
        fill: #3575ab;
      }

      .cls-102 {
        fill: #b8b9bd;
      }

      .cls-103 {
        fill: #dadbdd;
      }

      .cls-104 {
        fill: #e9e9eb;
      }

      .cls-105 {
        fill: #143064;
      }

      .cls-106 {
        fill: #767679;
      }

      .cls-107 {
        fill: #545358;
      }

      .cls-108 {
        fill: #929397;
      }

      .cls-109 {
        fill: #979998;
      }

      .cls-110 {
        fill: #dadbdc;
      }

      .cls-111 {
        fill: #fdfdfd;
      }
    </style>
    <linearGradient id="Degradado_sin_nombre_16" data-name="Degradado sin nombre 16" x1="539.45" y1="398.23" x2="541.37" y2="679.29" gradientUnits="userSpaceOnUse">
      <stop offset="0" stop-color="#28669e"/>
      <stop offset=".46" stop-color="#2d68a0"/>
      <stop offset="1" stop-color="#17376e"/>
    </linearGradient>
    <linearGradient id="Degradado_sin_nombre_18" data-name="Degradado sin nombre 18" x1="539.65" y1="406.06" x2="540.75" y2="609.33" gradientUnits="userSpaceOnUse">
      <stop offset="0" stop-color="#3f8ec8"/>
      <stop offset="1" stop-color="#204d83"/>
    </linearGradient>
  </defs>
  <g>
    <path class="cls-36" d="M585.63,365.76c1.4.19,2.78.35,4.12.5,2.63-.23,4.92.29,7.86.46,28.52,1.58,56.6,4.9,84.87,9.55,60.01,9.87,124.26,27.3,178.06,55.77,18.16,9.61,35.07,20.58,50.58,33.92,17.89,15.4,33.07,34.9,38.33,58.14.49,2.15.92,4.07.74,6.05.17.82.34,1.68.52,2.58v16.59c-1.09.6-.28,2.08-.45,3.12-5.95,36.14-36.43,63.78-66.06,82.83l-28.68,16.5c-60.29,30.53-129.9,47.79-196.77,56.67l-46.16,4.81-7.26.46c-1.67.15-3.4.32-5.18.51h-123.42c-.14-.46-.86-.55-1.49-.58l-7.94-.36c-83.42-6.84-177.88-26.19-251.7-66.7-17.28-9.48-33.42-20.22-47.98-33.39l-12.66-12.81c-7.38-7.46-12.78-16.25-17.3-25.71-4.3-9.02-7.02-18.14-7.63-28.1-.05-.76-.34-1.61-.76-1.93l.06-8.35c.94-2.28.83-4.67,1.16-7.08,2.62-19.6,14.43-38.67,28.12-52.77,21.27-21.92,49.66-39.14,77.36-52.24,46.48-22,98.62-36.57,149.25-45.71,32.42-5.85,64.82-9.88,97.63-11.79,3.69-.21,6.62-.69,10.18-.44,1.27-.16,2.57-.33,3.9-.53h88.68Z"/>
    <path class="cls-17" d="M685.39,697.36c-73.19,12.24-155.81,15.17-229.62,7.85-34.31-3.4-68.09-8.34-101.71-16.07-59.35-13.65-129.03-37.3-176.12-76.4-16.94-14.07-31.85-31.74-38.23-53.02-8.51-28.38,2.8-54.85,21.98-75.99,15.43-17.01,37.55-32.37,57.82-43.34,15.95-8.64,31.99-16.05,48.96-22.63,62.87-24.38,134.63-38.22,201.87-43.4,46.09-3.55,92.4-3.59,138.52-.11,49.65,3.74,98.68,11.81,146.67,24.87,54.2,14.75,122.76,41.63,161.71,82.54,16.2,17.02,28.58,39.64,26.67,63.56-1.91,23.89-16.32,45.28-33.61,61.16-18.33,16.83-40.06,30.37-62.42,41.37-20.73,10.2-41.89,18.6-63.97,25.75-32.19,10.41-65.05,18.27-98.5,23.87Z"/>
    <path class="cls-52" d="M419.25,685.41c-17.96-2.54-35.09-5.8-52.46-9.57-45.75-9.93-93.93-25.29-134.7-48.3-23.41-13.21-48.27-31.7-61.31-55.39-11.97-21.75-11.08-45.17,1.52-66.37,10.02-16.85,25.65-30.26,41.66-41.34,25.79-17.85,57.1-31.58,86.87-41.76,58.32-19.94,123.07-30.74,184.75-34.63,67.63-4.26,135.35-.87,202.03,11.08,51.34,9.2,107.28,25.1,153.21,49.5l20.62,12.13c21.47,14.04,43.02,31.95,52.59,56.2,6.84,17.31,5.91,35.84-2.45,52.44-10.9,21.66-30.92,38.41-51.37,51.27-39.08,24.57-85.56,40.59-130.46,51.58-99.06,24.24-209.37,27.44-310.51,13.15Z"/>
    <path class="cls-89" d="M530.19,687.26c-49.64-.62-97.25-4.96-145.86-14.43-44.8-8.72-91.09-22.14-132.11-42.09-14.27-6.94-27.54-14.68-40.34-23.92-6.86-4.96-12.8-10.1-18.76-16.05-20.16-20.12-31.2-46.15-19.16-73.55,12.71-28.91,44.86-50.15,72.46-64.43,41.46-21.46,90.29-35.65,136.16-44.84,35.38-7.09,70.97-11.21,106.99-13.41,100.1-6.13,216.68,5.61,310.36,42.63,30.95,12.23,66.34,30.43,89.28,54.34,28.25,29.45,30.92,63.21,3.42,94.14-7.7,8.66-16.1,15.93-25.6,22.66-29.23,20.69-64.97,35.65-99.23,46.52-75.61,24-158.35,33.43-237.62,32.44Z"/>
    <path class="cls-109" d="M589.78,365.76l-.03.5c-1.33.12-3.02.25-4.12-.5h4.15Z"/>
    <path class="cls-71" d="M496.96,365.76c-.99.78-2.54.62-3.9.53l-.24-.53h4.15Z"/>
    <path class="cls-76" d="M605.33,713.73v.51s-5.18,0-5.18,0c.05-.33.44-.55,1-.55l4.18.04Z"/>
    <path class="cls-87" d="M950.71,532.74c-.73-.6-.6-1.71-.52-2.58h.52s0,2.58,0,2.58Z"/>
    <path class="cls-100" d="M500.01,530.72c-.48-.88-1.71-2.9-3.11-3.04l-35.88,3.6-14.71,26.01c-6.98,12.34-14.31,23.92-22.64,35.4-18.56,25.08-41.95,46.23-74.86,44.58-16.18-.81-31.49-8.61-38.97-22.72,4.68,4.99,10.06,9.33,16.68,11.89,12.94,5.01,26.68,5.2,40.12,1.47,39.12-10.87,63.18-57.05,82.48-90.06l7.7-13.16c12.2-1.66,24.11-2.95,36.56-3.58,3.56,3.84,7.33,6.68,12.08,8.75l-5.43.86Z"/>
    <path class="cls-65" d="M503.81,478.91c-6.61,2.05-11.7,7.04-14.16,13.56-.29.02-.54.06-.67.21-1.47,1.66-8.57,10.31-8.35,10.97,1.79-.31,2.93.05,3.4,1.1-.21.42-.86.64-1.53.6-4.65-.27-8.79.17-14.05.33,9.05-13.92,20.22-25.67,33.01-35.76l7.03-5.54,1.53-2.56,36.34,9.63c35.46,9.4,78.95,17.33,108.61-8.22,5-4.31,7.66-9.81,6.9-16.18,3.23,2.16,4.95,5.88,4.64,10.02-.38,5.05-3.06,9.03-6.8,12.41-15.02,13.58-36.23,18.4-56.47,17.6-14.91-.59-29.13-2.92-43.54-6.73l-45.54-12.02c-.55,1.94-1.66,2.86-3.02,3.93l-7.95,6.25c.28.3.5.28.62.41Z"/>
    <path class="cls-70" d="M703.35,628.7c8.73,8.63,24.47,5.11,35.23-1.6,14.57-9.1,27.43-24.16,38.01-37.66,1.19-1.52,1.81-3.13,1.94-4.77,2.36.73,3.78,3.12,4.23,4.97.72,3-.53,4.8-2.16,6.91-10.94,14.15-26.32,31.79-42.07,39.8-9.73,4.95-22.07,6.48-30.34-.5-2.41-2.04-4.14-4.38-4.83-7.15Z"/>
    <path class="cls-65" d="M517.14,521.72c.32-2.88-2.35-4.66-4.72-6.32,9.06-5.03,14.03-14.82,12.3-24.56,9.61,8.09,3.4,24.88-7.58,30.87Z"/>
    <path class="cls-105" d="M572.71,567.1c.07-.25-.27-.63-.37-.52l-7.48,7.64c-8.94,10.07-16.68,20.63-24.04,31.92-10.38,15.92-25.59,29.9-44.89,32.38-11.54,1.48-23.05-2.18-30.82-10.57-1.96-2.11-3.7-4.04-4.4-6.58,5.07,5.84,12.43,8.99,20.42,10.17s16.54-.35,24.37-3.71c6.25-2.68,11.56-6.75,16.64-11.35,4.74-4.29,8.71-9.21,12.44-14.47l16.97-23.99c4.38-6.2,19.08-22.95,26.51-24.17-.55,5.11-3.13,9.22-5.34,13.26Z"/>
    <path class="cls-98" d="M732.96,605.43c-2.1,1.49-4.78,2.91-7.74,1.81.25-3.32,1.56-6.18,3.17-9.06l22.16-39.53,37.24-65.79c1.84.41,3.59,1.07,4.28,2.33,1.06,1.93.67,3.48-.33,5.24l-44.69,79.04-14.1,25.95Z"/>
    <path class="cls-70" d="M600.66,593.42l-23.4,40.79c-1.04,1.84-2.36,2.98-4.59,2.98h-22.29c-1.83-.01-3.44-.91-4.17-2.05-.97-1.52-.64-3.31-.29-4.83l23.65-.12c1.32,0,2.55-1.39,3.2-2.55l23.65-41.66c1.2,3.02,2.46,5.29,4.25,7.44Z"/>
    <path class="cls-98" d="M701.26,626.62c-.81-.05-1.22.61-1.9,1.18-5.69,4.81-12.09,8.36-19.34,10.18-13.09,3.28-26.35-2.67-32.03-14.58,14.32,14.31,34.58,9.33,49.3-4.41,1.15,3.07,1.96,5.64,3.97,7.63Z"/>
    <path class="cls-38" d="M639.14,604.79l-10.09,3.52c-10.76,2.48-22.37-2.32-26.3-12.39,10.67,9.38,23.58,6.93,35.76-.22l.63,9.09Z"/>
    <path class="cls-98" d="M458.12,618.38c-1.01-.16-1.49.67-2.27,1.33l-7.85,6.72c-2.21,1.89-5.93,2.11-8.34.46-2.84-1.94-4.24-4.98-6.06-7.44,2.34,1.73,5.8,2.85,8.56,1.07,4.18-2.7,7.59-6.04,11.32-9.74l4.65,7.59Z"/>
    <path class="cls-69" d="M516.6,536.29c-1.1-2.72-2.81-4.71-6.06-6.19,4.15-1.11,6.14-4.2,6.53-7.77,2.23.97,3.79,3,4.16,5.1.48,2.76-.71,4.85-2.6,6.77l-2.04,2.09Z"/>
    <path class="cls-70" d="M334.57,587.77c-6.53-6.38-7.25-16.11-2.93-24.35,3.79-7.24,9.92-12.24,17.03-16.12,3.1-1.69,4.37-5.21,4.11-8.28,2.48,1.36,4.01,3.99,4.25,6.56.27,2.87-.52,6.43-3.18,7.84-7.16,3.79-13.2,8.51-17.18,15.57-3.32,5.9-4.11,12.42-2.1,18.77Z"/>
    <path class="cls-98" d="M392.74,532.29l-1.07-1.76c-9.77,2.51-19.99,1.03-28.05-4.91-3.56-2.63-6.57-5.55-8.24-9.4,12.42,11.6,29.43,10.89,44.64,2.9l-5.23,4.72c-2.07,2.75-2.64,5.36-2.04,8.46Z"/>
    <path class="cls-83" d="M413.04,542.78c-.02-.3-.2-.59-.41-.58-1.53,1.34-3.11,2.27-5.05,2.83-3.79,1.09-8.11-.44-9.54-4.12l-1.2-3.05c8.96,4.22,12.99-6.96,25.01-7.82l-8.82,12.75Z"/>
    <path class="cls-3" d="M489.64,492.46c-1.43,3.78-2.01,7.88-2.03,12.18l-3.59.1-5.8-.11c3.6-4.73,7.17-9.19,11.25-13.39.24.51.09.92.17,1.23Z"/>
    <path class="cls-8" d="M661.87,447.04c2.96,4.5-.95,11.87-4.44,15.28-27.49,26.85-69.21,19.64-102.92,12.27l-44.07-11.47-1.18,1.92c-14.3,11.04-28.82,23.69-38.56,39.51l7.01-.31c.22.39.45.7.69.71,1.46.08,3.08.13,4.51.08.38-.01.76-.12,1.11-.28.03-.97.81-1.34,2.33-1.1.18-3.83.98-7.4,2.39-10.73l.9-.45c-.47-1.64-.46-1.76.34-3.26,1.83-3.47,8.33-10.69,12.31-10.88.57-.03,1.07.25,1.51.58,9.16-2.84,19.19,2.25,20.91,11.94,1.24,1.59,1.34,2.9,1.36,4.79.1,7.87-5.34,15.62-11.65,19.91,1.86,1.39,5.02,4.08,2.72,6.17l-.07.6c2.16,2.47-1.58,6.65-4.05,7.95,1.77,1.33,5,3.83,3.58,6.02l1.28,3.16c6.4-6.5,16.46-11.55,21.94-3.96,1.44,2,2.71,4.04,3.3,6.22,1.56,2.57,2.61,5.4,3.32,8.31l1.3-.09c1.51-.93,2.29-2.45,3.6-3.76l9.61-9.56c6.55-5.72,14.32-9.91,23-10.59,7.2-.56,13.6,2.36,17.04,8.5l3.26,5.83c8.71-9.36,21.1-15.47,32.82-10.84,6.05,2.39,10.57,7.11,12.23,13.12,3.08,4.49,1.79,11.07-.04,15.88l4.59-4.44,1.26.22c10.94-10.57,21.73-20.62,37.44-23.95,12.43-2.21,25.38,1.29,32.09,12.6l31.41-53.86c.84-1.45,2-3.04,3.84-3.03l24.89.16c2.99.02,4.26,4.46,3.01,6.67l.72.83c-20.35,35.75-40.49,71.49-60.39,107.22-.47.83-2.1,5.18-1.76,5.58.61.72,4.88-.81,5.56-1.61l1.04.54,6.73-4.77,18.85-19.44,5.61-5.84c1.61-1.68,4.56-2.41,6.35-.91l5.63,4.74c1.71,1.44,2.57,3.34,2.4,5.45,1.76.98.15,3.69-.84,5.02-12.39,16.81-34.06,41.5-55.54,44.76-6.38.97-15.43.57-18.81-5.75l-2.1-2.08c-1.33.28-2.35-.58-3.06-2.57l-1.39-3.23c-12.73,12.04-36.72,18.93-48.83,2.58-5.04-5.03-7.73-11.68-8.85-18.61l-1.07-.38-.47-6.81c-10.63,5.66-26.52,9.46-34.85-1.68l-2.09-2.5-1.43-.13-2.96-4.95-22.61,39.82c-.87,1.5-2.16,2.89-4,3.05l-23.12.12-.62-1.03c-1.62,0-3.36-.49-4.3-1.97-.71-1.11-1.45-3.23-.52-4.87l27.42-48.67,4.21-7.7-.39-1.44c1.84-3.26,3.69-6.59,4.45-10.3-8.8,5.28-16.35,12.26-22.65,20.94l-19.96,28.05c-13.09,18.29-33.5,32.71-56.84,27.52-6.52-1.45-13.25-4.44-16.6-10.5l-2.59-2.99-1.12.15-3.66-5.97c-3.41,3.14-6.78,6.24-10.64,8.84-3.21,2.17-6.94,1-9.11-1.95l-4.45-5.99c-2.39-3.22-1.34-8.03,2.12-10.59,8.12-6,13.89-13.71,17.04-23.4,7.77-23.88,27.03-43.68,51.71-48.75-.1-.96.55-1.41,1.95-1.36-3.22-2.04-6.6-4.23-8.87-7.33-11.91.68-23.79,2.12-35.62,3.58l-18.36,31.51c-20.91,34.24-47.29,75.8-92.76,74.38-13.74-.43-28.7-5.02-36.51-16.95-13.51-14.4-15.6-38.55-6.63-56.73,6.03-12.23,16.46-21.44,28.97-26.45,3.98-1.59,8.03-2.23,12.1-1.51,4.79.85,8.11,4.61,8.51,9.16,2.4,2.64-.42,6.97-2.89,8.75-7.99,4.3-15.14,10.19-18.53,18.81-3.04,7.73-.76,14.36,3.21,21.19,6.9,6.74,17.92,6.83,27.38,3.37,7.49-2.74,13.89-6.96,19.89-12.28,9.54-8.46,17.73-17.81,25.27-28.04l5.92-8.03-.58-.98,7.18-10.42c-4.61,1.37-8.9,3.57-12.88,6.59-3.07,1.6-7.61,3.44-9.91-.11-2.33-1.1-3.64-3.11-4.11-5.57-1.51-2.31-1.49-4.04-.26-6.67.44-.95,1-1.85,1.69-2.63-12.7,4.69-29.89,5.05-38.78-6.79-10.2-9.52-12.26-25.69-8.03-39.29,3.2-10.27,9.51-18.84,17.78-25.73,19.25-16.05,45.76-21.76,70.66-22.02,17.52-.18,34.44,1.31,51.67,4.14l34.43,5.65c25.65,4.21,51.14,7.09,77.16,6.94,18.22-.11,35.62-2.59,53.14-6.65,5-1.16,9.18,3.6,9.68,7.78Z"/>
    <path class="cls-75" d="M479.44,460.76c-7.68,5.66-14.6,12.01-21.21,19.28-8.07,8.86-14.37,18.65-21.19,28.56l-13.7,2.36-1.57.5c-.34-.02-.74,0-1.02.2l-.45-1.21c4.08-5.78,7.6-11.89,10.55-18.32,1.76-4.35,3.56-10.24-.81-13.55l-.96-3.51c-.44-3.25-3.13-5.83-6.06-6.21-3.68-.48-6.36,1.09-8.15,4.1-6.42,10.76-19.03,21.85-31.86,19.65-.53-.09-.9-.6-1.09-.84-1.93-2.06-.62-6.34.22-8.95,2.46-7.63,8.44-13.37,15.16-17.43,22.48-13.59,54.83-10.73,79.81-6.1.41.08.8.31,1.2.56s.78.57,1.14.9Z"/>
    <path class="cls-96" d="M519.27,556.34c1.44,6.28.25,12.43-1.21,18.75-2.32,10-7.73,18.91-16.3,24.6-5.07,3.37-12.68,4.82-16.31.92-2.54-3.38-1.43-8.97-.4-12.88,4.12-15.68,18.06-27.75,33.06-32.97.55.3.93.82,1.15,1.58Z"/>
    <path class="cls-29" d="M655.13,554.28l-11.01,10.64c2.43-3.8,4.87-6.75,5.53-11.24.54-3.69.63-7.57-.34-11.06,4.88,3.75,5.03,11.84,5.09,11.87.18.07.74-.1.73-.2Z"/>
    <path class="cls-32" d="M547.75,549.92c-.51.39-.51,1.69-1.8,2.21l-2.82-10.42c2.33,2.2,3.6,5.2,4.62,8.21Z"/>
    <path class="cls-105" d="M519.27,556.34c-.24-.4-.78-.72-1.31-.52-6.88,2.68-13.26,6.27-18.75,11.29-9.25,8.48-16.06,21.4-13.76,33.5-1.89-1.09-2.98-2.94-3.64-5.07-3.3-10.71,1.94-23.04,9.33-31.3,6.05-6.75,13.48-11.67,21.96-14.79,1.53-.56,2.79-1.21,4.05-2.32l2.11,9.2Z"/>
    <path class="cls-88" d="M628.63,575.91c-2.11,0-3.9-1.03-5.38-3.12-2.07-3.49-3.09-3.77-3.06-.84.06,2.04-.44,3.48-1.51,4.3-4.84-3.21-5.09-9.9-2.27-15.69,2.12,4.65,5.87,7.95,9.95,9.18,5.35,1.61,9.75.59,14.64-2.26-2.71,3.23-8.44,7.35-12.36,8.43Z"/>
    <path class="cls-80" d="M628.63,575.91l-5.17,1.42c-1.76.48-3.36-.14-4.78-1.08.17-2.98.47-6.03,2.02-8.93,2.08,3.83,4.68,6.64,7.93,8.58Z"/>
    <path class="cls-30" d="M433.88,607.04c5.27-4.58,10.57-9.21,14.2-15.29,2.33-3.91,3.71-8.08,5.27-12.38,8.15-22.58,27.15-41.65,51.33-44.56,1.91-.23,4.51-.33,5.82.93,2.2,2.11,2.95,5.29,2.98,8.21-7.99,3.32-15.3,7.02-21.57,12.75-7.19,6.57-12.69,14.44-14.95,23.93-2.84,11.95.52,25.68,12.63,26.98,4.55.49,9.05-.5,13.05-2.86,10.21-6.03,16.84-15.93,19.81-27.38,2.8-10.78,2.8-21.55-.74-32.15-.56-1.67.23-3.55,1.51-4.34l6.45-3.96c8.32-5.11,12.92,16.93,12.47,27.14l12.62-14.49,9.87-9.82c4.91-4.89,11.52-7.93,18.32-9s12.76,2.46,15.16,8.74c1.67,4.39,1.81,8.63,1.88,13.76l2.8-3.33c2.77-3.29,4.97-6.64,8.22-9.46,5.02-4.35,10.8-7.53,17.66-7.73,5.46-.16,10.65,2.43,13.63,6.41,5.17,6.92,4.03,16.65-2.55,22.85-3.01,2.84-7.06,4.46-11.18,3.37-6.89-1.82-9.87-8.58-8.63-15.97-1.02-.27-1.84.04-2.5.7-8.84,8.9-10.95,23.97-1.21,30.33,8.67,5.66,23.08-4.05,30.61-11.38l17.07-16.62c6.75-6.57,14.09-11.96,22.89-15.43,6.52-2.72,13.33-3.33,20.12-1.62,9.02,2.28,15,9.27,16.97,18.36l36.85-63.07,22.84.13-59.86,105.77c-2.5,4.88-4.93,10.58-1.83,13.76,8.05,8.26,26.19-10.05,33.46-18.3l10.45-11.86c.67-.76,1.18-1.41,2.12-1.45,1.29-.04,4.19,2.98,6.1,5.58-4.84,7.46-10.44,14.22-16.73,20.48l-6.54,6.5c-8.88,8.82-21.21,17.88-33.81,17.72-7.21-.1-13.09-4.51-14.97-11.42l-1.28-8.14-5.11,4.76c-10.06,9.37-23.98,17.04-37.02,11.02-13.66-6.3-17.88-24.45-13.68-39.33-6.24,4.41-12.15,8.06-19.05,10.34-10.85,3.6-21.84-1.74-25.15-12.77-1.05-3.52-1.35-6.96-1.76-11.03l-30.58,53.11-22.83.02,25.47-45.22,8.78-16.13c2.66-4.89,4.59-11.8,1.01-14.39-4.15-3-12.57,3.09-17.24,7.6-11.02,10.63-20.12,22.73-28.61,35.54-4.68,7.07-9.27,13.62-15.34,19.4-8.65,8.24-18.83,14.04-30.85,14.79-17.16,1.07-28.68-9.53-33.84-25.56-4.64,6.01-9.7,11.12-15.92,15.25-2.69-1.13-4.02-3.4-5.5-5.58-1.02-1.51-1.04-2.97.41-4.22Z"/>
    <path class="cls-8" d="M707.05,582.62c-5.25,9.85-17.53,23.95-28.5,25.88-5.67,1-10.53-2.18-11.66-7.75-4.3-21.13,18.78-52.56,35.89-51.88,5.23.21,8.75,4.19,8.96,9.28.19,4.52-1.07,8.62-2.73,12.78l3.1,2.2-5.06,9.49Z"/>
    <path class="cls-50" d="M706.97,560.37c-.62,6.43-4.54,9.89-1.28,14.57-4.99,11.04-18.39,28.8-29.75,28.92-2.34-.82-1.47-5.02-.95-7.03,3.31-12.99,12.25-30.41,25.08-36,1.95-.85,5.51-2.35,6.9-.46Z"/>
    <path class="cls-70" d="M706.97,560.37c-5.14-.01-9.52,2.58-13.41,6.2-9.03,8.42-15.51,19.19-17.74,31.44-.39,2.12-.53,4.12.12,5.86-9.43.11-5.74-30.07,17.53-47.26,3.01-2.23,6.97-3.63,10.53-2.7,2.82.74,3.19,4.01,2.96,6.46Z"/>
    <path class="cls-98" d="M479.44,460.76c-23-4.09-46.21-7.14-68.98-.04-14.95,4.66-29.06,14.89-28.53,31.06-1.08-.03-1.79-.85-2.4-1.87-4.97-8.21.21-18.7,7.39-25.26,23.44-21.4,69.42-14.86,98.79-8.52l-6.26,4.62Z"/>
    <path class="cls-98" d="M420.74,511.67c-6.88,1.4-13.05,4.13-19.87,7.07,9.56-6.87,17.2-14.88,22.66-25.2,2.53-4.77,5.12-9.34,5.91-14.79l-.36-3.66c.25,1.83,1.38,2.42,2.64,3.65,6.97,6.86-5.53,24.54-10.98,32.92Z"/>
    <path class="cls-98" d="M423.34,510.96c-.3.55-.99.63-1.57.5.31-.7,1.07-.41,1.57-.5Z"/>
    <path class="cls-111" d="M345.07,543.97c-4.24,2.12-7.61,4.86-10.88,8.02-5.33,5.16-9.02,11.59-9.93,19.08-1.42,11.72,5.58,22.45,16.82,25.74,12.9,3.78,27.49-1.67,38.11-9.71,14.05-10.64,28.23-27.84,38.39-42.5l14.39-20.75-11.01,1.35c-6.55.8-12.27,3.88-17.33,8.01-1.91,1.56-5.09,1.11-6.07-1.13-1.21-2.79.46-5.32,2.73-6.87,6.94-4.72,14.56-7.67,22.83-9.29l16.42-3.21,5.17-6.85c5.94-7.87,11-15.97,17.68-23.26,10.61-11.57,22.5-21.02,36.89-28.39l-29.34-5.88-24.32-2.87c-18.76-2.21-45.77,1.99-60.73,14.51-8.94,7.47-15.13,19.68-10.8,30.19,4.01,9.73,16.52,8.89,25.74,3.95,14.83-7.94,18.74-20.36,21.73-20.56.99-.07,2.17.72,2.66,1.86,1.13,2.64.06,5.32-1.07,7.9-4.07,9.27-9.12,17.94-16.6,24.76s-15.85,11.25-25.61,12.16c-14.89,1.38-27.56-8.26-30.21-22.84-3.62-19.89,8.41-37.59,25.02-48.08,28.64-18.09,65.93-17.01,98.95-13.06l41.65,6.57c45.91,7.25,88.94,12.51,134.79,1.4,1.55-.38,2.84-.62,4.18.35,3.08,2.21,2.28,8.23-.42,11.72s-5.98,6.07-9.75,8.39c-21.43,13.2-45.49,12.66-69.85,8.43l-24.3-5.37-45.39-11.98c-.23,1.79.56,4.38-.75,5.43-5.68,4.57-11.1,8.77-16.48,13.72-11.33,10.39-20.8,22.1-28.7,35.69l33.29-1.74c-1.1-6.16-.59-12.2,2.56-17.51,2.75-4.92,7.64-8.25,13.36-8.38,7.04-.16,12.05,5.55,11.53,12.47-.71,9.5-7.69,15.72-16.23,18.73,3.14,5.9,11.31,6.08,6.97,10.4-3.43,3.41-11.63-3.52-15.65-8.39-14.29.93-27.92,2.29-41.82,4.08l-8.5,14.66c-16.52,28.51-36.51,66.18-65.73,82.52-24.43,13.67-57.89,11.56-71.49-13.97-9.51-17.84-6.31-40.01,7.32-54.8,5.88-6.38,12.81-11.17,21.01-13.71,5.11-1.59,10.79-.66,11.65,3.9.4,2.14-.62,3.97-2.87,5.1Z"/>
    <path class="cls-97" d="M512.24,492.03c1.75,6.79-4.05,12.86-11.23,14.45-1.88-1.96-1.52-4.54-1.13-7.07.7-4.53,3.03-8.63,7.53-10.17,2.15-.73,4.31.75,4.83,2.79Z"/>
    <path class="cls-2" d="M949.71,524.96c-.76-.25-.4-1.08-.54-1.61.47.4.52,1.02.54,1.61Z"/>
    <path class="cls-2" d="M950.21,527.56c-.65-.3-.45-1.07-.47-1.65.44.44.48,1.04.47,1.65Z"/>
    <path class="cls-57" d="M336.77,686.36c2.22,0,4.43.12,6.6.58,31.42,6.7,61.61,12.36,93.65,15.84,98.99,10.75,199.82,6.16,297.33-14.83l3.82-.18c.24.73.25,1.25-.41,1.58l7.16.13c1.42.4,2.7,1.19,1.47,2.58-.12-.15-.32-.14-.44-.08-1.28.07-2.2.14-3.2,1-.26.06-.67.13-.94.07l-1.61.49-.45.02-1.64.54c-43.69,10.1-88.21,16.41-133.17,19.23-3.06.19-5.48.71-8.41.29-1.23-.18-2.37.48-3.13.61h-106.28c-2.87-1.27-5.88.12-9.21-.78-40.74-2.52-80.98-7.82-120.99-16.21l-32.69-7.79c-2.32-.92-.15-3.81,2.1-3.46-1.07-.87-1.21-1.65-.41-2.35.15-.38.41-.93.7-.89.95.12,9.29,2.13,9.69,2.43.34.26.42.75.47,1.19Z"/>
    <path class="cls-11" d="M582,365.76c-.06.18.22.55.52.56l10.27.22c52.06,2.56,103.73,9.56,154.29,22.21l-1.38.9c-4.16-.19-8.31-.05-12.46.41-3.65-.46-7.25-.9-10.82-1.3-.08.4-.29.99-.54.95-5.2-.7-13.08-2.04-18.02-3.46-.99-.06-1.46-.26-1.56-1.36l-.47.05-1.62-.54c-.4,1.55-3.94,1.03-4.08-.51l-1.65-.49c-.41,1.55-4.37,1.01-4.56-.57l-1.66-.48c.06,1.49-1.15,1.38-1.46-.05l-1.65-.47c-.45,1.58-4.85,1.03-5.09-.56l-1.65-.47-.72.95-11.09-1.43-.6-1.12c-.11.46-.27.45-.49,0l-2.13-.51c.11,1.3-1.76,1.21-1.97-.07l-1.67-.44c-.26,1.51-2.19,1.38-2.48-.07l-1.66-.44c-.26,1.51-2.2,1.38-2.5-.07l-1.67-.42c-.27,1.51-2.21,1.37-2.5-.09l-2.16-.38-3.54.29c-72.54-7.04-146.01-6.8-218.59,1.49l-3.89-.2-2.18.37c.14,1.49-1.09,1.43-1.48.05l-2.15.47c.16,1.52-1.57,1.51-1.98.08l-2.15.46c.17,1.48-1.06,1.46-1.49.07l-2.15.44c.15,1.51-1.13,1.4-1.48.05l-1.64.46c.16,1.52-1.56,1.51-1.97.08l-1.66.45c.15,1.49-1.08,1.43-1.47.05l-1.64.45c.26,1.21-1.21,1.19-1.47.06l-2.12.51c-.11.44-.26.41-.45-.03l-.28,1.11-29.1,5.25-.79-.91c-3.67.44-7.23.43-10.69-.03-3.75.42-7.47.92-11.16,1.51-2.25.08-3.3-.56-3.15-1.91,47.08-11.25,96.73-18.01,145.26-20.57,2-.11,3.54.28,5.33-.52,3.2-.21,6.44.66,9.28-.48h84.01Z"/>
    <path class="cls-48" d="M947.77,517.69l1.41,5.66.54,1.61.03.95.47,1.65c-.04,1.39-.38,2.96.49,4.14v17.63c-.22-.04-.52.18-.5.54.13,3.31-.57,6.32-1.42,9.25-1.4.38-2.62,1.49-3.65,3.31-1.16,1.37-3.74,3.4-3.95.79-.16-.23-.09-.34.2-.35l.42-1.7-.48-2.24c1.57-6.5,2.81-13.39,2.46-20.09-1.03,1.16-2.02,1.38-2.95.65l-1.42-1.39c-.87-3.82-3.73-22.75-1.52-25.76.57-.77.79-.86,1.71-.54,2.19.75,5.27,11.12,5.3,13.64-.45-1.68.3-7.39,1.66-8.31.31-.21.86.21,1.22.56Z"/>
    <path class="cls-48" d="M136.22,536.87l.91,2.13c-.42,10.75,2.07,21.4,6.38,31.21l-.08,2.33c.91,3.41-2.3,3.87-3.72.76-1.16-.67-2.27-1.01-3.32-1.01-3.39-7.74-5.62-15.94-6.36-24.64-.07-.79-.29-1.59-.73-1.93v-10.36c.5-.72.72-1.71.83-2.8.51-5.16,1.31-10.09,2.86-14.78,1.37-.94,2.11-.14,2.86,1.1.4,2.65,1.11,5.18,2.13,7.58-.68,1.95-.9,3.71-.22,5.69-.04,1.22-.31,4.66-1.54,4.73Z"/>
    <path class="cls-9" d="M363.12,387.75l-.23,1.12-30.85,7,30.86.12c1.83.67,2.64,1.57.89,3.04-.41.34-9.38,1.42-10.59,1.39l-2.31,1.21c-12.18,3.19-24.38,6.33-36.59,9.43l-2.61.09c.05.46-.09.49-.4.13-.73-.44-1.93-.39-3.61.13-3.88-.36-7.77-.28-11.68.26-8.46-1.37-16.6-.53-24.57,3l-1.56-.49c.12-1.16-.52-1.73-1.91-1.73-1.74-.5-2.66-1.43-2.77-2.79,23.75-9.2,48.38-16.38,72.94-22.33,1.67,1.06,4.37,1.1,6.08.4s2.75-.38,4.41-.49c1.36-.09,2.68-.55,4.12-.57s2.44.63,3.82.74c2.13.17,4.62-1.19,6.57.34Z"/>
    <path class="cls-18" d="M164.63,477.2c1.14.94.72,1.44-.73,1.16-1.15,2.76-2.91,5.28-5.29,7.56-1.99,3.2-4.35,5.8-7.09,7.81-1.37,3.92-3.2,7.7-5.49,11.35l-3.43,7.57.09,24.77c.08,1.56-.4,2.56-1.46,3.01-2.05.79-4.73-1.41-5.03-3.56.12-1.47-.04-2.99.53-4.72-.65-1.88-.68-3.74.28-5.64-2.8-3.86-.15-7.22-4.04-8.75,1.62-4.91,3.22-9.73,5.74-14.56,5.75-11.03,12.85-21.17,21.61-29.53l2.49-1.65c3.71.05,4.31,1.78,1.81,5.18Z"/>
    <path class="cls-42" d="M265.18,409.67c1.33.74,2.47,1.85,4.21,2.08.72.09,1.99-.91,3.05-.13l-2.58,2.56c.15.37.3.98.07,1.09-3.44,1.75-8.65,3.84-12.31,5.12-2.05.72-2.85.87-4.92,1.25-.77.14-1.51.31-2.23.61l-1.56,1.38c-9.55,4.45-18.95,9.2-28.21,14.27-1.9.62-3.79,1.32-5.64,2.11-.21,1.4-.7,1.6-1.72.56-.47-.49-.67-1.17-.58-2.05l-3.59-.83-.67-1.03c18.05-10.59,37.16-19.42,56.69-26.99Z"/>
    <path class="cls-62" d="M208.49,436.66c1.93-.1,3.74.61,5.65,1.22-.06,1.1-.33,1.89-.81,2.69l-2,2.44c-16.13,8.79-29.52,20.38-43.34,32.37-.97.85-2.18,1.35-3.37,1.83-.32-1.11,0-2.1.99-3.34-.99-.62-4.04-1.4-5.29-.2,13.38-14.47,31.17-27.04,48.16-37.01Z"/>
    <path class="cls-95" d="M240.06,653.26l2.63.57c19.45,8.01,39.25,15.13,59.06,22.08l2.29,1.46c.81.92,1.52,1.27,2.68.85.66-1.47,4.13-.4,4.06,1.16,1.74,1.17,4.81,2.18,6.81,1.99.33-1.49,2.56-.84,2.47.64,1.62.94,3.33,1.88,5.27,1.68.13-.51.32-.53.56-.06.54,1.13,1.51,2,2.45,2.91-.7.96-1.6.6-2.53.48-1.35-.17-1.74,1.46-1.6,2.42-43.57-11.51-91.14-28.91-128.65-53.77-.44-1.21.58-2.09,3.06-2.63.53-.6,1.12-1.08,1.78-1.45l1.82.41c11.93,7.09,24.12,13.72,36.56,19.89l1.29,1.36Z"/>
    <path class="cls-44" d="M143.43,572.54l1.99,1.73c12.19,23.9,33.4,41.85,54.96,56.06l.02,1.28c-.02,3.24-3.16,2.3-4.84,4.07-24.15-16-47.36-36.42-59.17-63.4-.14-.31.19-1.41.61-1.24l4,1.67c-.17.97.27,1.44.97,1.67.31.1.82-.37.95-.77l.51-1.07Z"/>
    <path class="cls-81" d="M747.08,388.74c15.3,3.08,30.26,7.79,45.54,12.73,18.45,5.96,36.12,13.02,53.3,21.17.48,1.44-.62,2.45-3.29,3.03.73.7.81,1.19-.08,1.88-.3,1.48-5.9-1.14-6.07-1.43-.23-.39-.34-.78-.26-1.23-1.74-.61-3.55-.97-5.42-1.07-11.8-4.96-23.69-9.63-35.68-13.99-4.17-.04-8.22-.5-12.15-1.39l-8.58.52c-4.3-.22-8.45-.19-12.46.07l-.71.89-36.15-8.84-.36-1.16-9.74-1.35c-6.68-1.85-1.8-3.81,2.2-4.25,6.5.03,12.99-.13,19.48-.48,1.72.46,3.27.53,4.66.22l-18.37-4.14-.51-1.18c.59-.57,1.92-.65,2.69-.36,5.25,1.97,13.36-.73,21.96.36Z"/>
    <path class="cls-2" d="M913.09,466.12c9.71,8.92,18.64,18.87,25.48,30.46,4.06,6.88,7.33,13.65,9.19,21.12-.3.01-.86.3-.97.74l-1,3.95c-.37,1.47.71,2.99-.03,4.9-.58-.5-1.23-.92-2.34-1.38.59-3.26-.7-6.03-2.01-8.93-.75-1.66-.97-3.59-2.61-4.68-1.32,4.71-.23,9.14-.13,13.64.1,4.79,1,9.21,2.14,13.56.75.68.51,1.01-.44.62-.39,1.49-1.14,2.44-2.63,1.51-.25,1.51-1.8,2.86-3.09,1.6-.41.11-1.02.1-1.07-.19-2.05-10.75-2.17-21.58-2.17-32.47-.09-1.18-.24-3.03-.41-4.13-.19-1.31-2.39-11.38-2.71-11.9-2.68-4.41-5.92-8.44-9.22-12.39l-.94-2.38c-.37.2-.9.5-1.16.29-1.27-1.01-7.24-7.13-8.01-8.34l.24-1.25c-3.12-2.83-2.33-4.37,1.89-5.2l1.98.84Z"/>
    <path class="cls-102" d="M913.09,466.12c-2.01.22-3.65.1-5.33,2.01,1.18.3,1,1.87,1.47,2.35-.43,1.06-.77.6-.88-.46l-1.82-.73c-18.88-16.08-40.2-28.92-62.32-40.19l-1.65-1.55c-.2-1.01-1.29-1.4-1.42-2.63,1.89-.46,3.65-.84,4.79-2.28,23.79,11.29,47.75,25.64,67.16,43.48Z"/>
    <path class="cls-82" d="M860.24,643.55c1.05.13,1.25.67.78,1.57,2.47,1.38,3.16,2.65,2.08,3.8-36.1,19.44-76.99,33.24-116.71,43.13-.28-.62-.76-1.55-1.6-1.56l-6.72-.09c-.78-.01-1.36-.14-2.14-.78.64-.74,1.44-1.31,2.24-1.86l.2-1.12c9.11-2.53,18.29-4.75,27.54-6.68l.74.39.14-1.13c29.24-8.74,58.79-19.47,87.64-32.75-.13-.38-.3-.92-.07-1.12.83-.74,5.07-2.95,5.88-1.78Z"/>
    <path class="cls-45" d="M920.14,607.38c-16.51,16.82-36.31,30.39-57.03,41.54-.21-1.78-2.23-2.7-4.25-2.76.74-.79,1.58-1.39,1.39-2.61,3.75-3.35,7.99-6.2,12.74-8.56,11.44-6.92,22.33-14.64,32.66-23.16l1.89-.75c2.06.02,4.39-2.14,5.77-3.74,1.23-1.27,3.39-2.88,5.24-2.66s2.79,1.09,1.59,2.68Z"/>
    <path class="cls-108" d="M948.78,559.12c-.05.16-.16.42-.12.59l-.45,1.63c-4.45,17.19-15.69,33.42-28.07,46.03-.05-.54-.25-1.07-.56-1.3-1.46-1.07-4.49.26-6.74,3.48l-3.4,2.07c-.59.36-.76.98-1.31.7-.31-.16-.45-.65-.59-1.24l1.3-2.58c13.07-12.01,24.15-26.41,30.46-43.11l1.89-2.18c1.01,1.38,4.15-2.16,5.89-5.31.83.29,1.27.74,1.71,1.21Z"/>
    <path class="cls-82" d="M745.94,691.97c-.9.67-2.1.75-3.2,1,.25-.57.79-1.34,1.39-1.41.64-.08,1.27.22,1.81.41Z"/>
    <path class="cls-82" d="M739.73,693.55c-.4.57-1.08.41-1.64.54.21-.69,1.07-.51,1.64-.54Z"/>
    <path class="cls-48" d="M948.21,561.35c-.21-.57-.18-1.44.45-1.63.16.65-.33,1.15-.45,1.63Z"/>
    <path class="cls-82" d="M741.8,693.04c-.42.43-1.03.45-1.61.49.21-.65,1.04-.61,1.61-.49Z"/>
    <path class="cls-107" d="M766.65,680.35l-28.48,7.42c-36.67,8.65-74.14,14.49-112.08,17.83-92.46,8.12-199.52,3.3-289.33-19.23-1.43-.56-.9-1.49.4-2.06,6.11.1,12.08,1.62,17.86,3.32,20.97,2.67,41.94,5.13,62.92,7.38,3.39-.24,6.76-.14,10.11.3,1.28-.48,2.58-.79,3.91-.93,10.86,2.31,21.89,2.55,32.93,2.04,2.98-.3,5.98-.53,8.98-.4,46.1,2.06,92.18,3.71,138.25-.36,8.92-1.06,17.85-1.48,26.79-1.26,13.99.39,27.79.13,41.59-2.62,26.48-1.89,52.89-6.4,78.86-12.47.99-.23,9.45-1.81,7.91.48-.16.23-.39.41-.65.57Z"/>
    <path class="cls-73" d="M349.29,679.35c9.98,1.08,19.91,2.76,29.76,5.03,26.36,4.62,51.91,7.46,78.43,10.37,2.53.28,4.99.94,7.43,1.65l-4.71,1.03-15.6.08-10.69-1.81c-1.83-.31-2.62-.61-4.59.37-1.68.84-4.62-.61-6.36-.26-3.1.61-5.48.16-8.5-.11l-10.34-.94c-2.45-.22-4.48-.43-6.9-.95-1.9-.4-4.14-.31-6.11-.62l-10.4-1.66-5.62-.45c-2.97-.24-5.55-.51-8.43-.92l-7.7-1.09c-2.51-.36-4.38-.2-6.8-1.12-4.54-1.73-9.54-2.08-14.37-2.72-.78-.1-1.12.78-1.03,1.13l-10.86-2.73c-.13-.03-.44,0-.56.06-1.92.24-3.68-.75-5.27-1.68l-2.47-.64c-1.81.23-5.11-.84-6.81-1.99l-4.06-1.16c-.68.69-2.22-.03-2.68-.85-21.74-6.93-43.3-14.52-63.98-24.11.42-1.61,1.63-1.39,3.03-.99,27.43,10.17,54.71,18.66,83.28,23.22,7.64,2.03,15.28,3.32,22.92,3.87Z"/>
    <path class="cls-99" d="M646.8,376.73l2.16.38,2.5.09,1.67.42,2.5.07,1.66.44,2.48.07,1.67.44,1.97.07,2.13.51h.49c1.62.36,1.15,1.08-.04,1.97-10.46.55-20.92.76-31.35.62-3.48.22-6.95.31-10.38.28-13.02.38-25.92.15-38.71-.69-5.67-.07-11.38-.01-17.11.19l-4.26.57c-25.46-.27-50.9.2-76.33,1.42-9.91.98-19.81,1.32-29.7,1.02-21.31.27-42.66.21-64.05-.17-1.66-.41-2.51-1.3-.79-2.12.11-.02.33.01.45.03l2.12-.51,1.47-.06,1.64-.45,1.47-.05,1.66-.45,1.97-.08,1.64-.46,1.48-.05,2.15-.44,1.49-.07,2.15-.46,1.98-.08,2.15-.47,1.48-.05,2.18-.37c53.2-6.94,109.28-8.79,163.26-6.44,21.29.93,41.97,2.44,62.76,4.86Z"/>
    <path class="cls-93" d="M393.29,382.3c-.1.26-.02,1.07.48,1.08l9.74.18c2.69.05,4.81-.02,7.43-.01l16,.07,9,.23,19.01.11c1.22,0,2.25.14,3.17.63l-.25,1.07-23.67,2.41-.99.47c-.39.59-.36,1.55.07,2.86-2.26.78-4.56,1.52-6.93,1.88-16.42,2.44-32.74,4.97-49.13,7.63-2.37.38-4.78.4-7.18.35-4.61-.43-9.16-.17-13.63.77-1.85.06-2.93-.48-3.24-1.6l10.8-2.5c-.52-.9-1.36-1-2.4-1l-32.2.02c.48-1.54,1.75-1.95,3.15-2.27l30.57-6.92,30.17-5.45Z"/>
    <path class="cls-91" d="M722.43,388.75l18.58,4.14c.9.2,1.68.67,2.29,1.71-.93.34-2.86,1.18-4.03.75-2.43-.89-4.17-.22-6.51-.19l-12.82.19c-2.62.04-5.3-.31-7.56,1.54l12.35,3.03-.63,1c-5.35-.35-10.75-.42-16.19-.2-.34.94-.79.82-.93-.19l-1.69-.36c-2.64.03-5.3,0-7.91-.4-15.54-2.39-31.04-4.71-46.6-6.98-2.62-.38-5.17-1.13-7.68-1.93l.73-1.05c1.99-.3,2.97-1.25,2.93-2.84.24-.3.48-.59.78-.82.28-.22.54-.41.84-.46,4.32-.74,9.11-.27,13.44.29,12.66-.66,25.32-.8,37.98-.42.89-.1,1.73-.32,2.53-.67l20.12,3.86Z"/>
    <path class="cls-1" d="M678.42,380.81l1.65.47,5.09.56,1.65.47,1.46.05,1.66.48,4.56.57,1.65.49,4.08.51,1.62.54.47-.05c-.33.91-1.4,1.73-2.63,1.71l-9.2-.21c-2.5-.06-4.4-.62-6.92.04l-8.1.22-4.68.14c-3.4.1-6.02-.52-8.96.23-5.14-.76-10.14-.88-15.07-.03l-3.31.34c-24.62-2.1-50.72-4.18-74.29-4.67l-.72-1.06c4.46-.62,8.95-1.42,13.54-.21,3.38-1.45,6.54-.38,9.92.35,1.31.17,3.02-.91,4.7-.28l3.59-.5c3.77,1.03,7.53-.16,11.12.11,4.34.33,8.3.42,12.58,0,1.4-.13,2.77.79,4.5-.22.71-.41,2.54.45,3.41.23,2.51-.62,5.14-.12,7.64-.18l12-.29c2.8-.07,5.1.08,7.89-.03l5.65-.23c.44-.02.93-.17,1.01-.35s.07-.57.02-.77l12.41,1.6Z"/>
    <path class="cls-1" d="M648.96,377.11c-.73-.03-1.68.26-2.16-.38.67.08,1.6-.4,2.16.38Z"/>
    <path class="cls-93" d="M420.78,378.31c-.54.59-1.43.35-2.18.37.52-.86,1.53-.29,2.18-.37Z"/>
    <path class="cls-93" d="M417.12,378.73c-.47.73-1.41.44-2.15.47.57-.58,1.4-.44,2.15-.47Z"/>
    <path class="cls-1" d="M665.52,379.21c-.73,0-1.69.19-2.13-.51.75.03,1.63-.14,2.13.51Z"/>
    <path class="cls-93" d="M412.99,379.27c-.53.65-1.4.42-2.15.46.54-.64,1.4-.43,2.15-.46Z"/>
    <path class="cls-93" d="M409.35,379.79c-.52.66-1.4.42-2.15.44.55-.62,1.4-.41,2.15-.44Z"/>
    <path class="cls-93" d="M395.86,381.83c-.44.68-1.39.64-2.12.51.47-.66,1.38-.48,2.12-.51Z"/>
    <path class="cls-93" d="M398.97,381.32c-.31.63-1.05.43-1.64.45.43-.46,1.04-.43,1.64-.45Z"/>
    <path class="cls-91" d="M680.07,381.27c-.58-.06-1.31.21-1.65-.47.58.08,1.23-.12,1.65.47Z"/>
    <path class="cls-93" d="M402.1,380.82c-.38.58-1.06.43-1.66.45.43-.51,1.06-.42,1.66-.45Z"/>
    <path class="cls-91" d="M689.93,382.82c-.58-.07-1.34.23-1.66-.48.6.02,1.23,0,1.66.48Z"/>
    <path class="cls-93" d="M405.71,380.28c-.32.64-1.05.43-1.64.46.43-.47,1.04-.44,1.64-.46Z"/>
    <path class="cls-91" d="M696.14,383.88c-.57-.07-1.29.17-1.65-.49.6.07,1.24-.07,1.65.49Z"/>
    <path class="cls-91" d="M701.84,384.94c-.6.07-1.33.07-1.62-.54.6.08,1.25-.06,1.62.54Z"/>
    <path class="cls-1" d="M661.43,378.64c-.59-.02-1.35.22-1.67-.44.6.02,1.2-.02,1.67.44Z"/>
    <path class="cls-1" d="M657.27,378.13c-.59-.02-1.34.2-1.66-.44.6.02,1.2-.02,1.66.44Z"/>
    <path class="cls-1" d="M653.12,377.62c-.6-.02-1.29.16-1.67-.42.6.02,1.21-.08,1.67.42Z"/>
    <path class="cls-91" d="M686.81,382.3c-.6-.02-1.32.16-1.65-.47.6.07,1.22-.05,1.65.47Z"/>
    <path class="cls-55" d="M941.8,561.17l-.42,1.7c.1.14.04.42-.2.35-6.47,18.84-18.85,34.7-33.65,47.87s-30.49,23.23-47.29,32.46l-5.81,2.91c-14.73,6.71-29.78,12.66-45.13,17.84-15.56,4.23-31.16,8.32-46.81,12.28-3.12.6-11.89,1.73-14.45.37-.56-.3-1-.7-1.29-1.28l.18-1.13s11.06-3.17,33.19-9.52l.88.83c8.72-.89,16.82-2.13,24.96-5.71,41.11-10.85,83.11-31.53,111.8-63.52,5.71-6.36,11.94-15.62,15.61-23.26,5.29-11.03,6.28-20.45,6.05-32.15l.97-1.09.44-.62c1.41-.48,2.26-1.63,3.89-2.79.56,8.48-.73,16.57-2.92,24.47Z"/>
    <path class="cls-108" d="M941.38,562.87c-.1-.61-.04-1.3.42-1.7.17.57.15,1.42-.42,1.7Z"/>
    <path class="cls-6" d="M141.25,540.43c.65-1.41,3.15.23,2.59,1.64l.91,1.27c-2.87,27.92,16.71,50.4,35.8,67.64,14.92,13.46,34.36,24.41,53.38,31.42,7.88,3.71,15.94,6.76,24.4,8.1.21-1.38.68-1.37,1.15-.06,8.83,2.73,17.53,5.85,26.11,9.37,20.1,7.04,40.49,13.12,61.17,18.25l2.55,1.29-4.25.6c-2.93.41-5.26-.9-7.85-1.22-3.8-.46-8.02-1.74-12.63-2.53l-9.49-1.61c-3.65-.62-7.11-1.33-10.7-2.26l-11.48-2.96-10.44-2.95-6.2-1.57c-11.21-2.84-20.09-7.56-31.6-11-1.58-.47-2.93-1.18-4.58-.59-13.69-6.35-27.27-13.07-39.66-21.65l-9.75-6.76c-18.81-13.03-37.57-31.77-47.22-52.31-5.21-11.1-8.17-23.53-7.22-35.67,1.63,1.44,3.37,2.51,5.03,3.56Z"/>
    <path class="cls-67" d="M311.28,411.28l-1.85,1.31c-9.5,3.35-19,6.73-28.51,10.15l-4.41.64-.2,1.17-6.46,2.28-1.03-.74c-1-.52-2.01-1.04-3.04-1.56-4.18,0-8.28-.5-12.3-1.51-1.4.19-2.4-.07-3.01-.77l19.39-8.07c6.05-2.47,13.19-4.77,19.78-4.15l6.35.6,7.05-.55c2.55-.2,5.13.79,7.71,0,.32-.1.71,1.02.53,1.19Z"/>
    <path class="cls-41" d="M370.06,401.26c-1.9.9-3.83,1.78-5.88,2.27-13.09,3.11-26.15,6.24-39.21,9.44-2.05.5-4.16.62-6.26.69-.97.38-6.52-1.08-6.79-1.65-.13-.27-.19-.56-.23-.86,13.63-4.33,27.55-7.71,41.51-10.73l3.2.58c2.86-.61,5.75-1.51,8.69-.76,1.74.44,3.3.94,4.98,1.02Z"/>
    <path class="cls-79" d="M311.28,411.28l.4-.13c1.16.64,2.61.48,4.01,1.05,1.04.42,1.88,1.43,3.01,1.45-1.49.96-3.02,1.9-4.72,2.47-8.23,2.74-16.54,5.43-24.8,8.06-1.7.54-3.49.7-5.26.82-1.59.15-5.31.2-6.73-.4-.42-.18-.58-.75-.69-1.22,11.38-4.66,23.09-8.4,34.77-12.1Z"/>
    <path class="cls-20" d="M235.09,441.9c.31,2.16-3.45,3.11-5.37,3.05l-1.96,2.32c-19.42,11.37-37.95,24.96-52.02,42.71l-2.55,1.64-.09,1.87-3.65,5.05c-.87,1.99-2.08,3.38-3.64,4.17-2.18,1.13-2.77-1.09-3.06-2.97.69-6.28.76-12.58.21-18.9l.95-2.49c.32-.32.54-.75.73-1.16,8.79-8.66,18.15-16.58,28.51-23.72,6.67-4.81,13.42-8.74,20.2-12.91.43-.18,1.23-.62,1.72-.56l5.84-2.33,3.04.97c3-1.21,8.67-1.61,11.13.82.95.94,1.25,1.61.02,2.43Z"/>
    <path class="cls-24" d="M156.26,530.16l.89,1.38-.5,5.73c-.35,1.85.85,2.32,3.61,1.41l.87.85,1.04,2.24c.19,9.97,2.6,19.79,6.79,28.83l.03,2.47c-.76,1.17-3.85,2.16-5.15,1.67-.4-.21-.79-.44-1.13-.72-3.82-3.17-7.04-19.58-7.59-25.07-1.83-.33-2.8-1.1-2.91-2.31-1.74.78-4.39-.64-4.72-2.49-1.65.84-3.51-.22-3.65-2.06l-2.59-1.64c-.18-.91.42-1.94.42-3.06v-22.22c-.01-1.34-.4-2.17.19-3.54,2.74-6.35,5.86-12.37,9.67-17.88l.99,1.82c.71,9.39,1.9,18.75,3.56,28.07-.72,2.6-.66,4.78.18,6.53Z"/>
    <path class="cls-39" d="M165.8,502.72c.34.22.82.58.73.86-.22.74-2.64,5.86-2.93,6.01-.4.21-.8.3-1.25.2-.13,2.79-.89,5.61-2.28,8.45l-1.9,7.32-1.41,1.95-.43,1.66c.99.36.95.76-.07.99-.54.11-1.15-.14-1.35-.51-.24-.46-.36-.98-.3-1.57l.44-4.41c-1.16-10.74-3.96-20.26-3.52-29.94,3.74-5.41,7.78-10.65,12.37-15.37l.53,14.45c.13,4.19-2.28,8.39,1.37,9.9Z"/>
    <path class="cls-15" d="M250.47,422.25c2.48-1,5.65.46,8.02.84,4.01.66,9.36-.97,10.33,3-.46.48-.94.94-1.46,1.35s-1.02.78-1.59,1.03c-9.03,4.14-17.97,8.25-26.94,12.53-1.17.56-2.48.74-3.75.89.15-3.14-6.69-4.2-11.37-2.03-4.66-2.92-5.57.48-8.66.14,11.37-6.72,23.21-12.86,35.42-17.76Z"/>
    <path class="cls-57" d="M317.6,681.37c-.39,1.79-2.13-.4-5.12-.56-.96-.05-1.53-.73-1.7-1.42l6.81,1.99Z"/>
    <path class="cls-57" d="M325.34,683.7c-1.85,1.06-3.82-.32-5.27-1.68l5.27,1.68Z"/>
    <path class="cls-57" d="M306.73,678.22c-.19.94-.97.9-1.68.57-.6-.29-1.07-.65-1-1.42l2.68.85Z"/>
    <path class="cls-104" d="M836.24,424.88l6.33,2.67c13.02,6.16,25.56,12.95,37.82,20.98,10.07,6.57,19.38,13.55,27.97,21.5l.88,1.36c-.07,2.72-.54,5.38-1.4,8l2.75,9.18c.25,2.4-.73,4.72-2.93,2.81l-1.17.21c-.61-.54-4.75-5.43-4.81-5.8-.08-.44.1-.86.33-1.22l-2.47-1.29c-6.24-6.88-13.2-13.13-20.62-18.76-14.02-10.62-27.08-17.81-42.34-26.19-1.17-.64-2.1-1.64-3-2.62l-4.38-.84-14.63-6.6-.27-1.26c-2.12-1.5-.12-2.45,1.7-2.94,4.01-.03,7.99.01,11.93.13,2.88-.63,5.55-.45,8.32.67Z"/>
    <path class="cls-31" d="M836.24,424.88c-3.6-1.52-7.33,1.34-10.44,0-2,.53-3.35.54-5.39.11l-3.99.1c-.61.01-1.36.17-1.68.46-.36.32-.49.87-.44,1.47l-.8.82c-12.8-4.57-25.61-9.14-38.42-13.72l-.24-1.19c-3.24.31-9.51-1.26-12.48-2.7l-.41-1.21c.16-.81.66-1.3,1.56-1.28l8.73.15c1.64.03,2.68.04,4.25-.06l6.6-.43,4.24,1.06c4.1-.44,8.06-.02,11.89,1.49l37.01,14.92Z"/>
    <path class="cls-53" d="M724.73,399.92l37.22,9.1,12.89,3.91c-.09,1.49-1.38,2.34-3.85,2.55l-3.48-.23c-1.61,0-3.24-.03-4.8-.45-17.48-4.71-34.87-9.38-52.61-12.94l-2.18-1.13c3.33-.99,6.76-1.37,10.53-1.16l6.29.35Z"/>
    <path class="cls-94" d="M934.67,543.22c0,1.55-1.79,3.09-3.15,1.96.6,1.34-4.52,3.7-5.56,3.89-.12.02-.22-.06-.27-.15-.54,5.45-3.58,21.37-7.34,24.59-.34.29-.73.53-1.13.75-1.61.22-3.28.54-5.02.97l-.95-.99v-2.44c3.67-7.9,6.28-16.31,7.12-25l1.2-2.11c.25-1.4.5-2.75.76-4.04,3.54,1.03,4.8-.36,3.78-4.18l-2.02-13.35.65-1.78c.42-.99.37-2.25-.14-3.79-.08-6.09-.63-12.14-1.65-18.15-1.5-4.47-2.62-9.03-3.36-13.68-.3-1.53-.9-5.32.57-5.93,4.14,4.3,7.83,9.03,11.09,14.34l2.8,12.28c-.28,1.59.43,3.09.45,4.62l.2,16.51.44,5.79.92,5.16.61,4.77Z"/>
    <path class="cls-10" d="M781,665.84l.1-1.14,24.03-8.72c2.88-1.48,5.73-2.15,8.54-1.99,38.61-9.78,76.13-29.16,102.84-58.84,8.98-10.92,17.83-23.91,19.95-38.18l.27-14.27,1.04-1.08c.89-.46,1.64-1.22,2.63-1.51l-.24,14.87-2.07,9.2c-2.62,8.07-6.35,15.56-11.4,22.27l-7.62,10.11-14.71,14.71-12.14,9.77c-9.78,7.88-20.77,13.4-31.66,19.59-6.39,3.63-13.04,5.91-19.76,8.8l-10.87,4.69-23.63,6.99-6.93,2.44c-3.56,1.25-7.02,2.41-10.96,2.41l-7.39-.12Z"/>
    <path class="cls-14" d="M813.67,653.99c-.19-.3-.09-.4.27-.32v-1.14c8.75-3.95,17.5-7.9,26.25-11.85l1,.69c9.9-2.26,20.38-7.85,29.5-12.74s20.75-12.68,28.4-19.53c13.53-12.1,27.1-26.17,32.67-43.88,2.18-6.94,3.16-13.14,2.03-20.47l.88-1.53,3.09-1.6-.24,14.83c-.09,4.09-1.66,8.1-3.1,11.84-3.3,8.58-8.04,16.02-13.64,23.13l-3.49,4.42-14.45,14.5-6.18,4.73c-5.24,4.02-10.04,8.37-15.83,11.65l-16.22,9.19c-9.22,5.22-18.8,8.71-28.81,12.29l-11.79,4.21c-3.33,1.19-6.77,2.19-10.32,1.58Z"/>
    <path class="cls-110" d="M909.23,470.48l8.93,9.29.46,5.81c.46,3.85,1.52,7.59,2.68,11.24,1.71,5.4,2.05,10.6,1.97,16.22l.55,6.79c.02.29.11.87-.08,1.15-.17.25-.56.43-1.01.34-.39.07-.95.17-1.12-.09-.61-.93-2.22-5.45-.94-6.09-1.86-2.08-3.27-4.63-4.23-7.65l-3.65-6.59-.31-2.38c-.36.18-.91.42-1.12.2-.56-.59-4.09-5.79-4.15-6.15-.07-.42.2-.83.45-1.19.79.04,1.41-.25,1.76-.75.48-.68.31-1.34.07-2.12l-1.92-5.98c-.31-.97-.84-2.66-.76-3.63,1.02-2.97,1.56-5.79,1.57-8.88-.03.34.55.42.88.46Z"/>
    <path class="cls-60" d="M854.43,646.46c-17.04,8.52-34.36,16.17-52.54,22.64l-35.24,11.24c.07-.15.03-.41-.07-.57-.13-.2-.59-.42-.97-.36l-6.03.9-11.82,2.68c-3.1.7-5.84,1.42-9.06,1.95l-6.18,1.02-8.75,1.56-9.01,1.36-13.5,2.13-6.21.49-14.41,1.28-6.28.91c-4.26.61-8.11,1.39-12.35,1.62-4.87.26-9.53.62-14.41.03-2.8-.34-6.01-1.22-8.68-.96l3.68-1.08c24.97-3.07,49.79-7.05,74.47-11.94,9.81-2.49,19.7-4.39,29.67-5.71,5.31,1.01,10.88,1.14,16.24-.28l15.56-4.13,11.79-2.81,18.65-5.14,19.73-6.73,10.87-4.71,11.04-4.54c1.31-.54,2.49-1.12,3.79-.88Z"/>
    <path class="cls-33" d="M808.61,650.96c1.52.66,3.16,1.17,4.91,1.54l.42,1.17-.27.32-32.67,11.85-34.25,9.82c-35.42,8.88-71.55,14.99-107.82,18.73-57.81,5.75-116.1,6.41-174.03,2.01-38.85-3.01-77.59-8.43-115.62-17.05-30.66-6.98-61.1-16.2-89.82-28.92.46-1.09,1.5-1.36,3.11-.81,2.21.74,3,.73,2.36-.04l.8-1.25c1.91.24,3.82.53,5.63,1.19,19.32,7.03,37.7,13.67,57.64,19.04,66.25,17.83,137.81,25.01,206.85,25.36,70,.36,142.22-6.41,209.57-23.71,19.87-5.1,38.27-11.47,57.57-18.17,1.81-.63,3.72-.88,5.61-1.09Z"/>
    <path class="cls-66" d="M568.43,381.58l13.12.42c22,.7,43.63,2.61,65.2,4.97.59,1.35,2.04,1.66,3.84,1.68-.95,1.03-2.48.59-3.65,1.03-1.45.55-2.44,1.32-3.86,1.19l-3.77.29c-34.27-2.97-68.63-4.88-103.08-4.73-32.31.14-63.34,2.53-95.43,5.17-2.5.21-5.02.03-7.51-.21-1.12-.2-1.67-1.83-1.46-2.68.26-1.02,1.85-1.71,2.87-1.81l23.42-2.31c36.64-3.09,73.54-4.18,110.29-3.01Z"/>
    <path class="cls-59" d="M643.09,390.87c20.83,2.3,41.6,5.44,62.2,9.31l1.69.36c.32-.03.66.13.93.19,20.06,3.86,40.17,8.09,59.6,14.52l3.62.11c7.6,2.51,15.2,5.03,22.79,7.54l.26,1.18c1.44.67-.65,3.79-2.06,3.17-1.95-.16-3.91-.37-5.78-.96-20.07-6.29-39.25-12.28-59.86-16.94-83.81-18.94-175.19-23.03-260.93-16.35-68.59,5.34-137.4,18.11-200.64,44.55l-2.63.42c-1.56.61-4.11-1.48-2.82-2.91,7.1-5,15.9-8.6,24.47-10.04,11.43-4.26,23.07-7.95,34.78-11.34,16.93-4.91,34.09-8.91,51.35-12.4,20.92-4.24,42.04-7.4,63.24-9.86,67.58-7.84,142.16-8,209.79-.52Z"/>
    <path class="cls-53" d="M706.98,400.54c-.59.06-1.21-.08-1.69-.36.6-.36,1.51-.27,1.69.36Z"/>
    <path class="cls-103" d="M168.99,573.06l2.13,1.85c20.09,35.57,57.89,55.78,93.7,72.3l.92,1.14c.17,1.83,1.09,2.52,2.88,3.69-3.39-.21-5.5-1.8-9.15-1.6l-1.15.06c-7.26-1.9-15.41-5.86-22.18-9.75-1.22-.7-2.16-1.78-3.06-2.83-2.02-.2-3.84-1.04-5.62-1.96-5.63-2.9-11.98-6.47-16.1-11.13-7.82-3.17-14.91-9.47-21.19-15.16-10.44-9.45-19.16-19.69-25.99-32.04-.21-.39-.27-.87-.33-1.37s-.04-1.02,0-1.53c1.51-1.27,3.17-1.8,5.15-1.67Z"/>
    <path class="cls-85" d="M147.49,544.13l1.04,1.28c-2.89,33.28,25.52,57.3,49.51,75.54,4.73,3.21,9.84,5.81,15.2,7.81,6.01,3.97,13.45,7.62,19.84,9.16,7.65,4.22,15.53,7.98,23.75,11.57.69.3,1.35.3,1.5,1.01-.53.44-1.49.63-2.44.44l-7-1.38-7.54-2.8c-3.28-1.22-6.14-2.96-9.55-3.98-4.84-1.44-9.18-3.63-13.69-5.96-9.28-4.8-18.48-9.32-26.66-15.83l-11.61-9.24-16.29-16.23-10.02-13.37c-1.61-2.15-2.4-4.52-3.55-6.87-3.11-6.38-5.73-12.98-6.1-20.22-.14-2.69-.09-5.11-.6-7.83l.55-5.16c1.19.75,2.46,1.39,3.65,2.06Z"/>
    <path class="cls-22" d="M276.51,423.38c.93.34,2.48.25,3.67.56l3.75,1.06c-8.26,3.08-16.43,6.42-24.47,10.04-1.05,1.02-2.14,2.04-3.45,2.71-5.65,2.9-11.43,5.77-17.16,8.53-1.33.64-2.79.92-4.23,1.15-1.46.4-4.4-1.07-4.92-2.48l5.37-3.05c10.8-6.13,22.24-11.07,33.74-15.81l7.69-2.71Z"/>
    <path class="cls-19" d="M229.72,444.95c1.88.24,3.46,1.18,4.92,2.48l-2.12,2.4c-19.83,11.43-38.69,25.23-52.86,43.4l-2.65,1.8-1.02-.35c-2.26-.84-3.19-1.86-2.79-3.05,14.14-19.14,35.85-34.94,56.53-46.68Z"/>
    <path class="cls-7" d="M177,495.03c-.85,3.04-2.33,5.96-4.43,8.76l-3.86,7.58-1.93,1.82c-1.78-.27-3.35-.86-4.69-1.79l.26-1.61,3.45-7.07c1.95-3.99,4.79-7.57,7.39-11.09,2.19,2,4.15,1.89,3.81,3.4Z"/>
    <path class="cls-86" d="M163.84,574.72c10.32,20.6,28.6,37.3,47.52,50.1-.13.25-.27.49-.46.7-.93,1.05-4.85-.74-6.09-1.31-4.77-2.21-12.83-8.33-17.14-11.69-8.04-6.26-16.38-14.32-22.85-22.23s-10.43-14-13.21-23.88c-1.49-5.32-3.17-11.86-1.4-17.22.35-1.05.8-2.29,2-2.57,1.07.68,2.64.78,3.79,1.88.96,9.31,3.78,18.11,7.84,26.22Z"/>
    <path class="cls-49" d="M152.21,546.62c-.13,1.38-1.04,2.6-1.38,3.97-.82,3.33-.15,6.66.4,9.91.75,4.47,4.22,15.28,6.11,17.86l7.65,10.43c4.41,6.02,6.56,7.33,10.01,10.82l5.09,5.15c1.75,1.77,2.93,3.16,5.05,4.48,1.55.97,2.96,2.58,4.73,3.45s2.84,2.33,4.38,3.36l8.09,5.43c2.82,1.9,5.63,3.48,9.03,3.34,6.98,4.72,14.32,9,21.72,13.09-.03.38-.3.66-.64.62l-4.91-1.28-7.64-3.24-7.08-4.31c-8.85-3.28-16.53-8.01-23.54-14.33l-7.42-5.61-16.58-16.52-6.27-8.72c-3.63-4-5.67-8.4-7.47-13.38s-3.93-9.32-3.97-14.61l-.07-12.38c1.55.87,3.21,1.53,4.72,2.49Z"/>
    <path class="cls-54" d="M166.78,513.19c-3.52,8.34-5.52,17.29-5.65,26.35-1.67.44-3.4.8-5.48.39-.21-3.41.28-6.6.61-9.76.03-.3.13-.69.07-.99l.43-1.66c1.02-6.12,2.88-12.15,5.6-17.72.83,2.81,4.91,1.08,4.43,3.4Z"/>
    <path class="cls-24" d="M156.32,529.17c-.12-.59-.15-1.35.43-1.66-.09.54.19,1.25-.43,1.66Z"/>
    <path class="cls-106" d="M833.56,435.71c16.76,8.1,32.78,17.44,47.5,29.2,7.69,6.14,14.81,12.3,20.92,19.66,1.4,1.85-2.8,3.18-4.37,2.66l-4.2-4.59c-17.17-18.75-44.84-34.91-67.67-45.64-.42-.31-.73-.76-.55-1.22.73-1.9,6.79-.49,8.38-.07Z"/>
    <path class="cls-74" d="M814.3,427.02l19.27,8.69-6.74.2c-.6,0-.93.49-1.08,1.09l-31.56-12.93-26.67-8.82c2.51-.75,5.16-.84,7.34-2.31l39.45,14.09Z"/>
    <path class="cls-58" d="M907.64,491.38l4.82,7.15c1.29,2.16-2.91,3.49-4.53,2.67l-10.31-13.97c1.48-1.54,3.72-1.16,4.37-2.66l5.65,6.81Z"/>
    <path class="cls-72" d="M917.21,574.26c.03.52.05,1.05-.01,1.56s-.12,1-.34,1.39c-11.75,20.98-29.92,39.07-51.25,50.19l.1,1.14c-7.66,4.6-15.45,8.91-23.37,12.94l-1.16-.12-27.24,12.31-3.87-.96c-1.02-.25-1.38-1-1.46-1.75,36.24-14.49,79.63-38.01,100.03-72.1.57-.27.94-.8,1.1-1.57l1.49-3.05c2.52.12,4.07-1.9,5.97.02Z"/>
    <path class="cls-64" d="M865.61,627.41c20.79-13.39,40.5-30.77,51.6-53.15,3.96-7.98,6.64-16.61,7.66-25.8l6.66-3.28c.46-.17,1.04-.21,1.26.17.24.41.25,7.53.13,8.56-2.48,21.9-16.14,38.67-32.02,52.53-9.64,8.42-22.04,17.63-34.22,21.65l-1.08-.68Z"/>
    <path class="cls-92" d="M841.19,641.37l24.42-13.96,10.8-4.5c2.64-1.17,4.63-2.9,6.98-4.53l6.12-4.23,6.82-5.18,3.88-3.31,10.6-10.23c5.01-4.84,8.64-10.63,12.6-16.37,4.26-6.19,5.89-13.28,7.53-20.53.66-2.92,1.37-5.06.84-8.21-.24-1.39.89-3.56-.24-5.14l3.15-1.96c1.24,11.21.67,16.15-3.65,26.87l-1.65,4.1c-6.01,11.51-14.1,21.51-23.61,30.21l-6.01,5.49-13.81,10.57c-8.7,6.66-18.56,10.9-28.29,15.71-4.6,2.27-8.9,4.57-13.89,5.88-.89.23-1.85-.15-2.57-.7Z"/>
    <path class="cls-25" d="M922.73,521.33c1.46,6.15,2.81,12.53,2.32,19.25-.11,1.51-3.7,1.66-4.86.68-.09,1.67.25,2.74-.64,3.42.58-9.7-.88-19.37-4.28-28.51-.18-1.66,4.68-2.45,5.38-1.02l2.07,6.18Z"/>
    <path class="cls-4" d="M920.67,515.15l-5.38,1.02c-1.93-5.19-4.07-10.53-7.35-14.98,1.51-1.37,3.72-.69,4.53-2.67,3.46,5.13,6.24,10.75,8.2,16.63Z"/>
    <path class="cls-94" d="M908.65,578.86c.33-.55.54-1.18,1.1-1.57l-.07,1.27c-.02.36-.68.49-1.03.3Z"/>
    <path class="cls-12" d="M825.74,437c.49-.06.98-.1,1.46-.07s.94.06,1.32.25c25.46,12.29,50.84,27.61,69.38,48.83l-.29,1.22c.32-.24.88-.53,1.04-.33,2.79,3.26,6.02,7.86,8.45,11.45,1.17,1.05,1.44,2.01.82,2.85,2.1.92,3.63,2.81,4.6,5.67l3.17,7.45-.41,1.85c.38.27.74.54,1.05.87,2.49,2.65,4.03,15.23,4.27,19.45.18,3.09-.03,5.29-1.04,8.19-.62,10.36-3.76,20.23-8.32,29.56,1.5.49-.04,3.49-1.49,3.05-.17.85-.53,1.37-1.1,1.57-.03.99-.11,2.03-.59,2.92-4.98,9.26-15.82,19.96-23.82,26.9-21.36,18.54-47.89,32.39-74.11,42.42l-1.53-.13c-50.38,20.14-108.65,32.17-163,38.21-75.85,8.43-152.48,7.68-228.15-2.21-50.84-6.64-104.79-19.02-151.72-38.62-35.65-14.89-79.14-39.93-96.75-75.28-5.19-10.42-8.03-21.86-7.87-33.53-.26-.37-.49-.75-.66-1.16-1.34-3.21,2.72-22,5.24-24.39.32-.3.69-.56,1.07-.79,2.69-6.39,6.12-12.56,10.22-18.15,14.72-20.08,36.06-35.47,57.64-47.6,8.06-4.53,16.41-8.59,24.84-12.39.69,1.23,1.75,1.89,2.82,2.91l-1.18,1.3c-38.31,18.73-87.37,49.67-89.6,96.58-2.14,45.11,42.96,77.68,79.36,96.05,67.9,34.26,153.24,49.45,228.85,54.33,106.13,6.84,223.24-2.53,322.48-41.75,46.95-18.56,119.24-59.86,105.57-120-11.25-49.49-70.58-78.56-113.81-95.8l-1.85-1.41,2.06-3.17c.2-.36.57-.88.84-.78,8.87,3.29,19.32,7.38,27.84,11.41,1.9.39,2.86,1.16,2.89,2.3Z"/>
    <path class="cls-30" d="M792.13,427.24c16.72,6.08,32.75,13.02,48.34,21.78,23.3,13.08,47.45,31.1,60.4,54.68,13.49,24.58,12.71,49.8-2.16,73.49-22.38,35.66-71.48,59.7-110.47,73.68-103.1,36.97-228.64,44.63-337.09,34.05-69.48-6.78-156.05-25.18-216.33-60.61-23.07-13.56-46.11-31.98-57.7-56.33-14.74-30.97-3.82-62.44,19.09-86.05,17.98-18.53,42.52-33.34,66.08-43.96,21.12-9.52,42.62-16.87,65.07-22.98,71.01-19.33,148.4-26.43,221.92-25.83,78.9.64,168.9,11.22,242.85,38.1Z"/>
    <path class="cls-77" d="M719.19,662.17c-87.68,19.8-183.87,23.35-273.12,13.85-53.42-5.68-109.71-17.19-159.78-36.31-17.4-6.64-33.8-14.43-49.73-23.91-33.91-20.17-68.98-54.16-54.64-96.38,11.48-33.81,49.38-58.09,80.84-72.63,22.24-10.28,45.11-18.12,68.89-24.46,35.93-9.58,72.64-16.08,109.72-19.95,68.67-7.18,137.7-6.81,206.19.89l39.17,5.6c28.12,4.68,55.55,10.81,82.76,19.34,32.4,10.15,64.63,23.66,91.79,44.02,16.39,12.29,31.57,28.54,37.96,48.15,8.19,25.14-1.39,48.39-18.83,67.1-36.87,39.55-108.9,62.87-161.23,74.69Z"/>
    <path class="cls-78" d="M526.95,405.1c8.78-.4,17.83-.39,26.62,0,76.71,0,170.2,12.34,242.41,39.67,17.4,6.58,33.69,14.43,49.47,24.16,23.09,14.24,46.07,34.57,50.87,62.25.49,2.84.47,5.6-.62,8.33l-7.39,1.35c-.36.38-.82,1.16-1.23,1.29-.55.17-1.66-.04-1.69-.49.23-.52.65-1.12.55-1.42-.08-.23-5.47-1.27-7.13.41-.39.39-.49,1.3-.9,1.48s-1.49.05-1.53-.34c.1-.71.03-1.36-.3-1.6-.46-.34-1.32-.37-1.82.04-2.35,1.96-4.81-1.06-4.39,1.31.91-.13,1.85.08,2.15,1.16l-7.23-1.35c-.04,1.19-.52,2.07-1.03,2.16-2,.36-4.32-2.24-5.64-1.29-1.7,1.23-3.47,1.77-5.48.98-2.23-.88-4.1,0-6.16.03l-7.57.12c-.63,0-2.03,1.32-2.62.91-1.76-1.56-3.13-1.57-5.26-1.12-1.98.42-3.89.39-5.62,1.82-.55.45-1.7.32-2.26.03-.45-.23-.9-1.11-1.15-1.61-.72-1.47-1.89-.37-2.69-.36l-25.75.32-13.35-.41c-1.84-.06-3.26-1.55-5.47-.36-1.84.99-6.26-1.4-8.78-3.68l-.73-.81,22.52-40.53,1.21-.04c.23-.89.43-1.82-.02-2.68-.81,1.05-1.09.87-1.06-.44-1.96-.21-3.88-.41-5.75-.6l-.66-.99,3.1-6.01,1.25-.16c.28-.64.36-1.21-.03-1.84l-.48,1.03-23.13-.14-36.67,64.66c-1.6,1.96-2.81,2.19-4.04-.2-1.32-8.01-7.4-14.13-15.2-16.06l-.86-1.26-1.65-.54c.04,1.5-1.16,1.35-1.44-.06-2.25-.45-4.55-.45-6.8,0l-1.5,1.23c-10.97,1.6-20.16,8.33-28.05,15.75l-18.76,18.4-1.26-.22-.57-1.16c2.86-6.74,1.23-13-.73-19.64l-1.15-.92c-.82-5.6-4.38-10.36-9.58-12.61l-.58-1.35-1.62-.44-1.45.83c-11.54-1.41-21.14,6.3-27.49,15.22l-1.59.46-1.22-.05-1.89-4.21-1.08-.77c-.84-5.6-4.17-10.7-9.77-12.44l-.52-1.26-1.72-.41c-.45,1.7-3.02,1.74-3.4-.02l-2.21.43-1.3,1.36c-8.79,2.21-15.77,8.14-21.7,14.75l-11.99,14.19-1.26-.11-1.17-.23c-1.09-3.72-2.27-7.36-3.56-10.94l-1.23-1.03c-.97-3.61-4.21-14.15-9.37-11.3-2.7,1.49-8.86,5.05-8.28,8.43,6.19,22.07,2.36,48.27-16.3,63.22-5.66,4.53-14.57,7.18-21.4,4-1.76-.82-4.84-2.43-4.18-4.52-4.05-24.31,13.86-46.4,35.77-54.86.44-2.5-.33-5.1-2.32-7.82l.58-1.2c-1.1-.07-1.69-1.23-1.76-3.48l-2.14-5.09.67-1.06.33-.63c5.17-.97,4.8-6.48.29-8.13l-.19-1.24c-.47-.71-.39-1.59.23-2.64-.33-1.13-.21-1.96.37-2.52l.44-1.42c9.68-5.58,12.54-16.62,8.18-26.62l-1.07-.93c-.16-7.41-6.98-13.45-14.34-10.87-9.93,3.48-14.6,15.91-12.81,25.71-.07.86-.39,1.4-1.05,1.92-.82.65-18.32,1.66-20.81,1.69l-.68-1c9.44-16.35,23.23-30.08,37.35-42.49l1.54-1.91c.02-2.4.75-3.68,2.18-3.84l51.17,14.45c29.54,8.58,71.7,13.05,95.75-9.92,4.34-4.15,9.38-12.11,4.81-17.39l.11-1.13-.83-.95c.82-3.84-.44-8.56-5.16-7.62-36.45,10.03-74.61,9.05-111.81,3.48l-58.08-9.92c-41.36-7.11-105.02-9.65-130.14,31.14-8.75,14.2-10.94,34.65.49,47.88l.25,1.76c4.66,6.79,10.68,12.94,19.21,14.57l.84,1.28,2.74.33,1.62-1.02c6.57-.07,12.98-2.04,18.62-5.39l1.92.03c.72-.33,1.11-.27,1.18.18l.15,1.18-5.15,3.81c-2.5,2.25-2.25,5.74.29,7.82l-.05,1.14.93.8c-.53,3.44,1.77,7.81,5.73,6.16,4.72-3.64,10.63-7.92,16.65-8.98l1.72.69v2c-11.45,17.49-24.24,36.38-39.75,50.55-12.72,11.62-33.25,23.78-49.84,12.96-2.42-1.58-6.47-4.57-6.03-7.53-3.53-16.22,8.26-31.97,22.38-39.89,1.73-2.37.59-6.02-1.96-7.31l-.07-1.14-.69-1c1.21-2.83.39-6.36-2.65-7.51-9.49-3.6-24.14,7.99-30.1,14.88l-1.48.12c.1-.64-.51-1.5-.77-2.12.72-1.11,1.82-2.18,1.31-3.62l-7.62-.2c-4.47-.12-8.35-.06-12.5-.1l-10.83-.1-7.19-.06c-1.27-.01-2.1-1-3.99-.41-.95.3-2.57-.98-4.22.27-1.06.81-3.63-.63-4.91-.46l-10.03,1.34c-1.58.21-2.23,1.24-4.21.24s-4.83.02-6.97-.19c-2.72-.27-5.15-.67-7.81-.34-2.37.29-4.12-.47-5.64-2.26-1.37-1.62-3.85-2.3-5.26-.4-.26.35.55,1.01.82.94l.99-.27c.59-.16,1.38-.2,1.74,0,.26.14.64.75.5,1.55l-7.01.08c-1.95.02-3.57.53-5.45.11l-4.4-.96c-1.72-.38-3.7,1.14-5.63.77-1.85.75-3.6.79-5.34-.21-2.56,1.33-5.15.34-7.34-1.07-1.23.49-2.43,1.97-3.97,1.32.32-1.51-1.35-3.2-1.38-4.5-.15-7.89,1.97-15.21,5.21-22.35,17.15-37.81,69.52-62.36,107.52-75.51,45.81-15.85,97.84-25.77,146.17-30.73,28.12-2.88,56.02-4.62,83.96-4.62Z"/>
    <path class="cls-68" d="M553.56,405.1h-26.62c.24-.25.59-.43,1.12-.46h24.39c.53.03.87.21,1.11.46Z"/>
    <path class="cls-51" d="M620.97,610.75c-1.26.19-2.01.14-3.27-.02l3.27.02Z"/>
    <path class="cls-51" d="M438.9,631.23c-.15.63-.74.63-1.31.62-.43-.01-.85-.07-.81-.67.71.05,1.51.25,2.12.05Z"/>
    <path class="cls-26" d="M377.78,526.43c-1.11-.04-1.78-.09-2.74-.33.96-.19,1.95-.22,2.74.33Z"/>
    <path class="cls-56" d="M788.96,497.51l-.02-2.68c.94.71.48,1.85.02,2.68Z"/>
    <path class="cls-16" d="M484.53,453.62c-7.84,4.96-14.24,11.82-20.59,18.6-1.94.98-3.56,2.43-4.86,4.37l-4.22,1.59-22.11.38c-2.66.24-4.81-.32-6.46-1.68-.42-1.29-2.39-2.09-3.42-1.35,1.35-4.68.91-8.96-2.41-9.3-1.41-.14-2.52.83-3.42,2.13l-1.84,2.66c-.7.61-1.61.59-2.74-.06-6.92-1.19-13.87-1.49-20.86-.92-2.8-.42-5.39,0-7.75,1.25-1.68.27-3.68.23-2.71-1.84-1.07-1.05-.22-2.02,1.17-1.59l3.94-2.4c.24-1.36.81-2.63,1.72-3.82-.84-1.31,1.35-2.88,2.47-3.57,28.47-17.68,60.45-12.99,91.72-6.02.42.09.82.35,1.22.62s.78.61,1.15.95Z"/>
    <path class="cls-101" d="M463.94,472.22l-6.87,8.16c-.66.56-1.5.56-2.52.02.26,1.18.26,2.23.01,3.15-6.31,7.97-11.34,16.8-16.98,25.72l-14.06,2.89c-4.83.99-9.4,2.18-13.66,4.11,1.23-1.09-.52-1.61-.71-3.3,7.01-7.03,12.7-15.33,16.18-24.85,1.38-3.78,2.11-7.69.96-11.24,3.38.49,6.78.78,10.3.7l18.24-.42,4.52-1.77c.61-2.26,2.36-3.53,4.6-3.17Z"/>
    <path class="cls-5" d="M415.19,471.03c-4.44,6.44-9.82,12.41-16.71,16.62-7.52,4.6-17.51,6.68-23.18,1.13.23-6.9,1.79-13.71,5.82-19.31.86,1.65,2.62.91,3.96.15,2.29-1.3,5.18-.24,7.54-.73,3.04-.63,5.51-.37,8.38-.1,1.23.12,2-.27,3.59.38s6.81-.52,10.6,1.86Z"/>
    <path class="cls-34" d="M642.16,616.98c2.77,6.88,7.67,13.17,14.97,15.86,15,5.53,29.83-4.94,40.28-16.01l1.57,6.35c1.41,5.68,5.41,10.56,11.22,12.07,12.13,3.15,24.92-5.12,34.12-13.35,9.94-8.9,18.47-18.8,26.41-29.5.73-.98,1.32-1.66,2.1-2.23,1.71,1.2,3.91,2.56,4.82,4.55.87,1.88-.88,3.01-1.85,4.28-7.45,9.74-14.78,19.19-23.68,27.61-9.69,9.16-20.56,18.01-34.22,18.31-10.95-.02-16.39-7.39-18.22-18.02-4.08,3.79-7.77,7.26-12.32,10.15-12.16,7.72-27.31,9.38-37.07-1.54-4.28-4.78-7.03-10.54-8.59-16.82-.18-.72.01-1.31.46-1.73Z"/>
    <path class="cls-34" d="M579.32,559.23c-5.87-.45-13.32,7.55-18.22,12.8-7.58,8.11-13.78,16.92-19.84,26.27-4.96,7.66-9.38,15.14-15.16,22.19-10.39,12.69-23.67,22.62-40.52,22.64s-26.68-10.55-31.97-25.23l-10.86,10.51c-1.21,1.17-2.42,2.37-3.85,2.83-.61.52-1.6.48-2.12-.05-2.54-3.26-6.6-8.63-5.78-10.94.07-.2.35-.33.72-.3.52.8,1.25,1.57,1.87,1.97.96.62,2.49.54,3.45-.25,5.08-4.18,9.34-8.72,13.95-14.25,2.4,6.15,4.3,11.61,8.46,16.22s9.43,8.22,15.88,9.61c19.46,4.19,36.34-7.73,47.97-22.82l10.69-15.78c9.48-13.99,20.17-31.43,34.3-41.37,2.08-1.46,4.39-2.63,6.95-2.96,2.31-.29,4.17,1.15,4.53,3.33.33,2.02.2,3.91-.45,5.59Z"/>
    <path class="cls-34" d="M787.89,494.39c.29.02.83.26,1.06.44.46.84.26,1.8.02,2.68l-23,41.39-33.23,59.98-7.55,15.41c-.26.54-.15,1.55-.47,1.83-.34.3-1.36.19-1.74.24-4.61-1.86-3.87-8.02-1.44-12.59l16.72-31.5,43.42-77.88c1.83-.51,4.35-.46,6.22,0Z"/>
    <path class="cls-84" d="M639.58,603.41l-8.71,4.64c-3.2,1.73-6.62,2.2-9.9,2.69l-3.27-.02c-4.64-.59-9.61-1.96-12.85-5.85-3.62-4.35-5.74-9.27-7.05-14.73l-28.6,51.03-22.98.08c-1.04,0-1.96-.55-2.3-1.21-.32-.62-.35-1.48.04-2.22l2.63-5.06,17.31.08c.55,0,.91-.27,1.07-.55l30.18-53.77c.81-.22.99,1.08,1.05,1.85.61,7.88,4,15.54,11.1,19.38,6.54,3.54,14.23,2.29,20.81-.72l12.09-6.79-.6,11.16Z"/>
    <path class="cls-27" d="M477.66,606.88c-8.99-11.05-3.75-29.53,4.59-41.18,6.86-9.58,16.39-16.58,27.3-20.85,1-.39,1.59-1.02,2.14-1.85,1.37,3.16,5.71,8.9.99,10.71-14.13,5.44-25.66,16.16-31.31,30.25-2.86,7.12-4.05,14.35-3.13,21.92.07.56,0,.9-.58,1Z"/>
    <path class="cls-27" d="M645.96,567.4c-2.04,3.6-6.23,6.26-9.41,9.07-8.42,3.83-17.18-3.15-18.71-11.71-3.01,4.25-3.97,9.93-4.17,15.18l-1.06,1.28c-7.85-7.37-4.44-22.01,3.48-30.07,1.05.27,1.26,1.43,1.12,2.34-.74,4.89,1.1,9.55,5.28,12.52,4.52,3.22,11.09,2.44,15.31-1.35,5.16-4.64,7.45-11.47,6.86-18.07,1.7,3.3,3.6,6.89,3.37,11.01-.17,3.05-.55,7.11-2.07,9.79Z"/>
    <path class="cls-56" d="M787.89,494.39h-6.22s.47-.6.47-.6l4.75.03c.56,0,.96.19,1,.57Z"/>
    <path class="cls-63" d="M636.55,576.47c-6.78,5.98-17.43,10.86-23.94,4.76.05-6.8,1.35-13.54,5.71-19.27.96,5.59,2.91,10.3,7.61,12.92,3.2,1.78,7.14,1.87,10.62,1.59Z"/>
    <path class="cls-30" d="M785.79,484.8c.4.56.35,1.25.03,1.84l-3.69,7.15c.35.28.19.48-.47.59l.73.82c-20.69,36.42-40.77,72.97-60.25,109.63-1.41,3.28-2.88,8.06.73,10.34l.09,1.19c4.62,1.87,12.68-3.42,16.93-7.66l12.18-12.17,13.57-15.48c1.08-1.24,2.53-1.71,3.97-.44l3.55,3.12c1.32,1.16,1.52,2.92.71,4.47l-1.03,1.97c.24.41.37.91.09,1.27-11.48,14.78-28.23,36.25-46.28,43.26-9.64,3.75-23,3.71-26.63-7.75l-.86-.15c-.93-2.57-1.72-5.18-2.37-7.83-10.31,10.55-25.48,20.68-40.65,14.59-6.65-2.67-13.2-9.33-13.98-16.59-1.74-4.32-2.32-8.95-2.58-13.56l-1.01-.52.47-8.78c-13.05,8.91-33.47,15.63-40.85-3.93-.41-.03-.75-.1-.84-.29-1.33-2.83-1.8-6.15-2.23-9.22l-28.95,51.58-1.21.04h-21.83c-.65,0-1.13-.27-1.36-.51s-.63-1.1-.34-1.63l21.25-38.45,15.23-28.84,1.42-3.64-.73-1.07c.62-2.67.77-6.71-2.83-6.85-7.93-.3-21.9,17.03-26.55,23.11-8.61,12.31-16.97,24.52-25.07,36.62-16.23,23.8-53.47,36.61-70.06,6.42-1.15-2.78-2.37-5.36-3.67-7.75-3.51,4.01-7.08,8.06-11.19,11.47-2.52,2.09-5.54,3.65-7.56.08-.26-.45-.29-.85.06-1.32l-2.73-4.17c-1.31-2-.91-3.93.85-5.51,4.55-4.11,9.03-8.19,12.63-13.21,3.17-4.43,4.57-9.33,6.38-14.43,4.37-12.27,10.29-23.58,19.36-32.93,9.62-9.91,23.45-17.29,37.09-17.61.4-1.53,3.51-.18,3.17,1.3l2.27,5.34c.63,1.47.47,3.2.95,4.29.37,1.16.16,1.81-.91,2.39-23.12,8.25-45.57,36.17-33.03,60.66l-.09.83c5.64,6.93,16.27,5.99,24.22.23,7.33-5.31,12.49-12.66,15.5-21.3,4.48-12.87,5.28-26.58,1.51-39.68-.68-2.37-.81-4.81,1.3-6.3l6.63-4.68c2.43-1.72,5.48-.86,7.05,1.67,2.19,3.54,3.98,7.32,4.54,11.25,1.56,3.7,2.48,7.67,2.77,11.91.56-.85,1.21-1.1,1.96-.74l4.97-5.97c8.72-10.47,17.37-21.38,31.28-24.21l2.21-.43c.99.28,2.38.19,3.4.02l1.72.41c3.45,1.03,6.72,2.99,8.67,6.37,1.49,2.57,2.67,5.38,2.69,8.1.55.63.55.99,0,1.08l.39,4.84c.61-.18,1.11-.75,1.49-1.71l1.22.05c7.11-10.35,17.65-18.79,30.53-16.51l1.62.44c6.39,2.34,10.7,8.01,11.31,14.88,3.16,8.6-3.84,20.21-12.63,22.14-5.33,1.17-11.73-.84-13.4-6.46-.4.09-.75.12-.92-.04-1.77-1.67-1.71-7.26-1.59-9.6-2.84,3.19-4.93,7.04-6.06,11.16-1.87,6.82-.45,11.34,2.55,17.43l1.32-.23c6.27,4.55,14.35.45,19.82-3.57l2.81-.95.05-1.41c3.01-2.15,5.68-4.63,8.01-7.45l1.35-.21,12.19-11.92c10.68-10.88,22.11-21.72,37.39-23.24,2.22-.45,4.57-.45,6.8,0l1.44.06,1.65.54c8.57,1.71,15.51,8.08,17.03,16.99.21.52.57.96.89,1.03.46.09.77-.14,1.09-.71l24.16-42.65,12.97-22.84,24.23.15Z"/>
    <path class="cls-21" d="M785.83,486.64l-.03-1.84c.46.24.55.6.56.99,0,.45-.4.61-.52.85Z"/>
    <path class="cls-5" d="M633.34,531.71c-.6.08-1.21-.04-1.62-.44l1.62.44Z"/>
    <path class="cls-46" d="M709.61,560.45c-.49,9.27-5.96,12.25-.58,15.48-2.03,6.21-5.37,11.46-8.87,16.88-6.44,9.97-20.94,25.09-31.23,18.36l-.98-1.79c-.34-17.1,13.84-44.99,30.27-51.4,3.65-1.42,10.03-2.08,11.39,2.46Z"/>
    <path class="cls-5" d="M702.34,532.24h-6.8c1.53-.89,5.37-.85,6.8,0Z"/>
    <path class="cls-5" d="M581.6,528.64c-.65.53-1.45.58-2.21.43.71-.14,1.2-.72,2.21-.43Z"/>
    <path class="cls-5" d="M586.72,529.06c-.62.11-1.23.01-1.72-.41.81-.14,1.13.23,1.72.41Z"/>
    <path class="cls-43" d="M543.13,559.25c-.71.85-1.33,2.27-2.77,2.38l-1.96-13.55c.76.16,1.24.63,1.48,1.38l3.25,9.79Z"/>
    <path class="cls-40" d="M601.19,547.78l-1.71,2.48c-.22.33-.77.11-.92-.13-.1-.17-.06-.49-.09-.69l-.39-4.84v-1.08c1.46,1.01,2.2,2.69,3.1,4.26Z"/>
    <path class="cls-5" d="M705.42,532.83c-.59,0-1.19-.13-1.65-.54.63.03,1.28-.05,1.65.54Z"/>
    <path class="cls-61" d="M709.61,560.45c-7.52-6.87-18.24,1.84-24.63,9.44-9.63,11.45-16.49,26.8-16.05,41.29-5.3-3.46-5.22-12.61-3.6-19.54,3.31-14.12,10.88-27.13,21.88-36.55,4.36-3.74,9.8-6.31,15.39-5.45,5.14.79,7.26,6.09,7.01,10.81Z"/>
    <path class="cls-47" d="M598.48,549.45c-.74-1.47-.38-3.23-.39-4.84.89,1.35.48,3.22.39,4.84Z"/>
    <path class="cls-5" d="M382.3,467.87c1.33-2.4,3.64-4.38,5.66-6.22l-.76,4.37c-1.45,1.23-3.1,1.85-4.9,1.85Z"/>
    <path class="cls-34" d="M508.91,523.37c3.45,1.56,5.41,3.46,4.46,6.87-.6,2.15-2.49,3.69-4.9,3.12l-3.17-1.3c-4.04-2.64-7.59-5.59-10.69-9.52-13.06,1.12-25.34,2.55-37.91,4.54-1.15.76-1.74,2.35-2.37,3.56-8.65,16.66-17.4,32.83-27.25,48.85-11.78,19.15-26.33,39.52-45.27,51.72-19.15,12.34-46.45,14.75-64.07-.09-6.33-5.33-10.56-12.04-13.63-19.6-.46-1.14-.77-2.11-.44-3.18,3.96,7.48,9.66,14.14,17.36,18.38,17.09,9.41,39.09,6.71,55.61-3.26,17.78-10.74,32.56-30.56,43.61-48.24,11.5-18.39,21.56-37.19,31.53-56.57,13.51-1.76,26.5-3.37,40.06-4.23,3.47,4.68,7.87,8.02,13.1,10.34,1.68.36,3.12-.23,3.99-1.4Z"/>
    <path class="cls-90" d="M467.36,506.71l-8.09.11c10.29-18.74,23.93-34.87,40.28-48.15l4.5-4.44c.94-.93.6-2.5.78-4.26,15.09,3.56,29.42,8.04,44.27,12.48,24.88,7.44,53.6,13.39,78.72,6.19,12.3-3.53,28.94-12.48,32.44-24.17,1.3.65,2.15,1.84,2.42,3.43,1.88,11.18-9.59,19.36-19.23,24.47-15.71,8.32-33.91,9.77-51.61,7.93-15.12-1.57-29.2-5.37-43.77-9.51l-40.39-11.47c-.19,1.4.03,2.86-.82,3.95-3.27,4.18-7.41,6.97-11.26,10.56-9.81,9.14-18.32,19.16-25.5,30.44-.81,1.28-1.37,2.11-2.74,2.43Z"/>
    <path class="cls-27" d="M426.28,476.88l1.26.66c1.45,12.25-7.99,25.95-16.16,34.63-.24.25-.6.39-.99.53s-.82.22-1.25.28c.03.64-.06,1.28-.42,1.83-1.33,2.03-6.42,4.32-8.79,5.24-6.69,4.3-14.27,6.65-22.16,6.37l-2.74-.33c-4.8-1.18-9.56-2.76-13.31-6.42-2.81-2.75-6.46-6.39-6.75-9.43,11.02,10.95,27.7,10.02,40.86,1.72,12.19-7.69,23.15-23.03,27.02-36.44.53-2.56,5-.68,3.42,1.35Z"/>
    <path class="cls-34" d="M325.76,590.82c-5.86-9.16-4.93-21.29,1.07-30.64,4.41-6.89,10.33-12.26,17.44-16.27l1.85-1.43c1.85.62,3.11,2.36,3.53,3.75.61,2.04.54,4.78-1.35,5.86-13.5,7.73-24.12,21.86-21.89,37.71.09.65-.21,1.01-.63,1.02Z"/>
    <path class="cls-35" d="M421.38,532.84c-6.47,1.24-12.12,4.55-17.18,8.73-2.2,1.82-5.16,1.04-6.7-1.17-1.3-1.86-1.51-4.05-1.15-6.22,3.64,1.59,7.01-4.02,13.2-6.9,5.57-2.59,11.48-4.12,17.61-4.23l-5.78,9.8Z"/>
    <path class="cls-27" d="M509.5,518.21c-2.7-1.74-5.78-3.31-7.44-6.45,8.55-3.04,14.59-9.95,15.67-18.39l.41-2.17v-1.03c.45.17.8.52,1.09,1.09,5.04,10.17.03,22-9.72,26.95Z"/>
    <path class="cls-90" d="M484.53,453.62c-23.24-5.03-46.39-9.66-70.12-4.46-8.47,1.86-16.31,4.87-23.37,9.76-1.28.89-2.14,1.88-3.07,2.72-1.11,2.62-3.04,5.02-5.66,6.22-.27.48-.84,1.13-1.17,1.59.04,1.74-.58,3.51-1.85,5.31l-2.43,8.49c.08,2.28-.44,4.12-1.54,5.5-5.42-5.31-4.97-14.88-1.52-22.21,8.26-17.55,27.1-24.79,45.69-27.41,23.66-3.32,49.48,2.2,72.84,7.42.4.09.68.4.77.55.14.23.19.96-.18,1.19l-8.38,5.3Z"/>
    <path class="cls-30" d="M660.26,444.47c1.33,2.79-2.36,7.05-4.36,9.26-19.65,21.67-58.28,21.84-84.92,15.48-21.7-5.7-43.42-11.69-65.17-17.99.01,1.3-.05,2.67-.97,3.69-16.62,14.76-33,30.59-43.78,50.83l5.57-.06.73,1.03,19.81-1.28c.61-.04,1.27-.25,1.45-.55.2-.34.35-1.08.25-1.72-1.52-9.75,2.48-19.44,10.92-24.57,4.17-2.54,9.33-2.38,13.14.4,3.51,2.56,5.14,6.68,5.2,11.18.44.46.69.86.01,1.03l-.41,2.17c.38.38.8.82.84,1.36.42,6.06-9.1,15.96-14.93,17.54,1.57,1.91,3.5,3.45,5.77,4.64l.1,1.29c1.15,1.65.8,3.7-.6,5.16.66,1.9-1.48,2.59-3.2,2.54-4.07-.12-12.13-6.91-14.2-10.58-13.08,1.23-26.14,2.6-39.19,4.1-11.87,23.34-24.24,47.04-39.16,68.37-17.62,25.19-41.81,49.26-74.84,45.41-14.8-1.73-29.85-10.2-34.67-24.86-2.07-3.91-3.39-8.01-4.31-12.3l-.33-1.71c-2.42-16.12,1.52-32.87,12.18-45.36,6.77-7.94,19.18-17.58,29.52-16.6,2.53.24,4.74,1.64,5.62,3.48,1.05,2.18.77,4.59-.22,6.63l.3,1.08c-16.82,9.47-29.63,27.15-20.53,46.39l-.13.87c7.8,12.19,23.96,12.87,36.83,6.66,6.04-2.92,11.36-6.6,16.4-11.09,14.11-12.55,32.89-37.46,42.39-53.55l-.66-.92,4.35-7.37c-8.58-.3-17.05,3.93-23.51,9.44-1.62,1.08-4.52,2.66-5.22.18-1.98-.87-2.8-3.04-2.97-4.9-.21-2.28.75-3.92,2.58-5.26l5.15-3.78c-.06-.22-.09-.4-.03-.44.87-.53,7.23-4.25,7.68-4.16s.82.27,1.1.64c1.33-1.84,3.44-2.97,6.33-3.4,0,0,6.92-1.45,20.77-4.34,4.74-8.61,10.14-16.71,16.2-24.3l1.4-.67c-.7-1.44.97-3.82,2.51-3.17-.27-.29-.63-.71-.5-1.02.62-1.45,5.69-6.57,7.37-7.14l.65-2.22c3.94-5.05,12.22-12.69,17.63-16.11l2.3-.28-.06-1.19,7.52-4.88c-31.15-6.89-71.88-15.58-100.86,1.83-8.56,5.14-16.29,13.56-18.36,23.48-1.3,6.24.11,10.31,2.54,15.92l1.35-.18c13.32,8.12,29.13-6.11,36.65-16.69l1.88-.87c-1.26-.6.75-3.24,1.49-3.92,3.77-3.46,7.06-2.06,7.88,2.89.29,1.72.09,5.19-1.7,5.53l.54,1.79c-6.95,19.88-24.86,41.39-47.37,42.03-7.5.21-17.17-2.18-21.05-9.1-4.71-4.68-7.59-10.85-8.58-17.79-2.02-14.09,2.55-28.13,11.71-38.94,5.83-6.88,12.53-12.08,20.42-16.45,34.35-19,81.05-13.05,118.95-6.51l45.15,7.8c20.29,2.98,40.11,4.62,60.65,4.01,17.37-.51,33.91-3.04,50.49-7.42,3.37-.89,6.28,1.14,6.72,4.29.26,1.84.24,3.65-.22,5.22Z"/>
    <path class="cls-23" d="M299.34,596.05c-.11-.52-.24-1.09-.33-1.71.35.48.45,1.1.33,1.71Z"/>
    <path class="cls-26" d="M409.86,516.27l-8.75,3.96c-.4-.1-.76-.04-1.18-.18,3.21-2.06,6.49-4.35,9.21-7.08,1.87.23,2.87,2.38.71,3.3Z"/>
    <path class="cls-28" d="M507.3,494.14c-1.9,1.87-3.66,3.87-5.27,6.01-1.39.71-2.7,1.58-4.61,1.32-1.65-5.8.87-12.3,6.02-15.6,1.42-.91,4.04-.54,4.7.88,1.15,2.5.2,5.15-.84,7.39Z"/>
    <path class="cls-13" d="M502.03,500.14c.69-2.8,2.71-5.2,5.27-6.01-1.18,2.55-2.77,4.73-5.27,6.01Z"/>
    <path class="cls-16" d="M457.06,480.39l-2.51,3.17c-.67-1.02-1.76-2.7-.68-3.89.62-.68,2.53.2,3.19.72Z"/>
    <path class="cls-5" d="M517.73,493.38c.09-.71-.3-1.6.41-2.17,0,.74.27,1.69-.41,2.17Z"/>
  </g>
  <g>
    <path class="cls-37" d="M182.58,852.14c-4.69,0-9.04-.74-13.04-2.23-4-1.49-7.46-3.6-10.39-6.33-2.92-2.73-5.2-5.95-6.83-9.64-1.63-3.7-2.44-7.73-2.44-12.09s.81-8.46,2.44-12.13c1.63-3.67,3.9-6.87,6.83-9.6s6.39-4.84,10.39-6.33c4-1.49,8.35-2.23,13.04-2.23s9.11.75,13.08,2.23c3.97,1.49,7.42,3.6,10.35,6.33,2.92,2.73,5.2,5.93,6.83,9.6,1.63,3.67,2.44,7.71,2.44,12.13s-.82,8.39-2.44,12.09c-1.63,3.7-3.9,6.91-6.83,9.64-2.93,2.73-6.37,4.84-10.35,6.33-3.97,1.49-8.33,2.23-13.08,2.23ZM182.58,836.33c1.82,0,3.52-.33,5.09-.99,1.57-.66,2.95-1.61,4.14-2.86,1.19-1.24,2.11-2.76,2.77-4.55.66-1.79.99-3.82.99-6.08s-.33-4.29-.99-6.08c-.66-1.79-1.59-3.31-2.77-4.55-1.19-1.24-2.57-2.19-4.14-2.86-1.57-.66-3.27-.99-5.09-.99s-3.52.33-5.09.99c-1.57.66-2.95,1.61-4.14,2.86-1.19,1.24-2.11,2.76-2.77,4.55-.66,1.79-.99,3.82-.99,6.08s.33,4.29.99,6.08c.66,1.79,1.59,3.31,2.77,4.55,1.19,1.24,2.57,2.19,4.14,2.86,1.57.66,3.27.99,5.09.99Z"/>
    <path class="cls-37" d="M244,852.14c-4.86,0-9.55-.55-14.07-1.66-4.53-1.1-8.25-2.54-11.17-4.3l6.29-14.24c2.76,1.6,5.84,2.88,9.23,3.85,3.39.97,6.69,1.45,9.89,1.45,1.88,0,3.35-.12,4.43-.37,1.08-.25,1.86-.61,2.36-1.08.5-.47.75-1.03.75-1.7,0-1.05-.58-1.88-1.74-2.48-1.16-.61-2.69-1.12-4.59-1.53-1.9-.41-3.99-.85-6.25-1.32-2.26-.47-4.54-1.09-6.83-1.86-2.29-.77-4.39-1.79-6.29-3.06-1.9-1.27-3.44-2.94-4.59-5.01-1.16-2.07-1.74-4.65-1.74-7.74,0-3.59,1.01-6.86,3.02-9.81,2.01-2.95,5.02-5.31,9.02-7.08,4-1.77,8.98-2.65,14.94-2.65,3.92,0,7.78.41,11.59,1.24,3.81.83,7.23,2.1,10.26,3.81l-5.88,14.15c-2.87-1.43-5.64-2.51-8.32-3.23-2.68-.72-5.28-1.08-7.82-1.08-1.88,0-3.37.17-4.47.5-1.1.33-1.89.77-2.36,1.32-.47.55-.7,1.16-.7,1.82,0,.99.58,1.78,1.74,2.36s2.69,1.06,4.59,1.45c1.9.39,4,.8,6.29,1.24,2.29.44,4.57,1.05,6.83,1.82,2.26.77,4.35,1.79,6.25,3.06,1.9,1.27,3.44,2.93,4.59,4.97,1.16,2.04,1.74,4.58,1.74,7.62,0,3.53-1.01,6.77-3.02,9.73-2.01,2.95-5.01,5.33-8.98,7.12-3.97,1.79-8.97,2.69-14.98,2.69Z"/>
    <path class="cls-37" d="M276.78,850.82v-57.94h19.54v57.94h-19.54ZM294.99,829.46v-16.06h20.69v16.06h-20.69ZM314.36,850.82v-57.94h19.54v57.94h-19.54Z"/>
    <path class="cls-37" d="M343.33,850.82v-57.94h19.54v57.94h-19.54Z"/>
    <path class="cls-37" d="M372.31,850.82v-57.94h16.06l23.18,37.83h-8.44l22.51-37.83h16.06l.17,57.94h-17.8l-.17-31.12h2.81l-15.4,25.91h-8.61l-16.06-25.91h3.48v31.12h-17.8Z"/>
    <path class="cls-37" d="M444.99,850.82l25.33-57.94h19.2l25.33,57.94h-20.2l-18.71-48.67h7.62l-18.71,48.67h-19.87ZM460.05,840.72l4.97-14.07h26.65l4.97,14.07h-36.59Z"/>
    <path class="cls-37" d="M542.83,850.82v-57.94h16.06l23.18,37.83h-8.44l22.52-37.83h16.06l.17,57.94h-17.8l-.17-31.12h2.81l-15.4,25.91h-8.61l-16.06-25.91h3.48v31.12h-17.8Z"/>
    <path class="cls-37" d="M652.18,852.14c-4.69,0-9.04-.74-13.04-2.23-4-1.49-7.46-3.6-10.39-6.33-2.92-2.73-5.2-5.95-6.83-9.64-1.63-3.7-2.44-7.73-2.44-12.09s.81-8.46,2.44-12.13c1.63-3.67,3.9-6.87,6.83-9.6s6.39-4.84,10.39-6.33c4-1.49,8.35-2.23,13.04-2.23s9.11.75,13.08,2.23c3.97,1.49,7.42,3.6,10.35,6.33,2.92,2.73,5.2,5.93,6.83,9.6,1.63,3.67,2.44,7.71,2.44,12.13s-.82,8.39-2.44,12.09c-1.63,3.7-3.9,6.91-6.83,9.64-2.93,2.73-6.37,4.84-10.35,6.33-3.97,1.49-8.33,2.23-13.08,2.23ZM652.18,836.33c1.82,0,3.52-.33,5.09-.99,1.57-.66,2.95-1.61,4.14-2.86,1.19-1.24,2.11-2.76,2.77-4.55.66-1.79.99-3.82.99-6.08s-.33-4.29-.99-6.08c-.66-1.79-1.59-3.31-2.77-4.55-1.19-1.24-2.57-2.19-4.14-2.86-1.57-.66-3.27-.99-5.09-.99s-3.52.33-5.09.99c-1.57.66-2.95,1.61-4.14,2.86-1.19,1.24-2.11,2.76-2.77,4.55-.66,1.79-.99,3.82-.99,6.08s.33,4.29.99,6.08c.66,1.79,1.59,3.31,2.77,4.55,1.19,1.24,2.57,2.19,4.14,2.86,1.57.66,3.27.99,5.09.99Z"/>
    <path class="cls-37" d="M703.75,850.82v-42.8h-16.97v-15.15h53.47v15.15h-16.97v42.8h-19.54Z"/>
    <path class="cls-37" d="M774.85,852.14c-4.69,0-9.04-.74-13.04-2.23-4-1.49-7.46-3.6-10.39-6.33-2.93-2.73-5.2-5.95-6.83-9.64-1.63-3.7-2.44-7.73-2.44-12.09s.81-8.46,2.44-12.13c1.63-3.67,3.9-6.87,6.83-9.6,2.92-2.73,6.39-4.84,10.39-6.33,4-1.49,8.35-2.23,13.04-2.23s9.11.75,13.08,2.23c3.97,1.49,7.42,3.6,10.35,6.33s5.2,5.93,6.83,9.6c1.63,3.67,2.44,7.71,2.44,12.13s-.81,8.39-2.44,12.09c-1.63,3.7-3.9,6.91-6.83,9.64-2.92,2.73-6.37,4.84-10.35,6.33-3.97,1.49-8.33,2.23-13.08,2.23ZM774.85,836.33c1.82,0,3.52-.33,5.09-.99,1.57-.66,2.95-1.61,4.14-2.86,1.19-1.24,2.11-2.76,2.77-4.55.66-1.79.99-3.82.99-6.08s-.33-4.29-.99-6.08c-.66-1.79-1.59-3.31-2.77-4.55s-2.57-2.19-4.14-2.86c-1.57-.66-3.27-.99-5.09-.99s-3.52.33-5.09.99c-1.57.66-2.95,1.61-4.14,2.86-1.19,1.24-2.11,2.76-2.77,4.55-.66,1.79-.99,3.82-.99,6.08s.33,4.29.99,6.08c.66,1.79,1.59,3.31,2.77,4.55,1.19,1.24,2.57,2.19,4.14,2.86,1.57.66,3.27.99,5.09.99Z"/>
    <path class="cls-37" d="M814.67,850.82v-57.94h27.07c8.88,0,15.65,1.96,20.28,5.88,4.64,3.92,6.95,9.24,6.95,15.98,0,4.47-1.08,8.32-3.23,11.55-2.15,3.23-5.2,5.7-9.15,7.41-3.95,1.71-8.62,2.57-14.03,2.57h-17.05l8.69-8.03v22.6h-19.54ZM834.2,830.37l-8.69-8.86h15.81c2.7,0,4.7-.61,6-1.82,1.3-1.21,1.95-2.87,1.95-4.97s-.65-3.75-1.95-4.97c-1.3-1.21-3.3-1.82-6-1.82h-15.81l8.69-8.86v31.29ZM849.35,850.82l-14.24-21.11h20.69l14.4,21.11h-20.86Z"/>
    <path class="cls-37" d="M874.51,822.34l6.95-23.26,2.73,10.43c-3.2,0-5.82-.92-7.86-2.77-2.04-1.85-3.06-4.37-3.06-7.57s1.03-5.84,3.1-7.74c2.07-1.9,4.68-2.86,7.82-2.86s5.75.95,7.82,2.86c2.07,1.9,3.1,4.48,3.1,7.74,0,.88-.07,1.77-.21,2.65-.14.88-.43,1.95-.87,3.19-.44,1.24-1.16,2.91-2.15,5.01l-5.79,12.33h-11.59Z"/>
    <path class="cls-37" d="M923.93,852.14c-4.86,0-9.55-.55-14.07-1.66-4.53-1.1-8.25-2.54-11.17-4.3l6.29-14.24c2.76,1.6,5.84,2.88,9.23,3.85,3.39.97,6.69,1.45,9.89,1.45,1.88,0,3.35-.12,4.43-.37,1.08-.25,1.86-.61,2.36-1.08.5-.47.75-1.03.75-1.7,0-1.05-.58-1.88-1.74-2.48-1.16-.61-2.69-1.12-4.59-1.53-1.9-.41-3.99-.85-6.25-1.32-2.26-.47-4.54-1.09-6.83-1.86-2.29-.77-4.39-1.79-6.29-3.06-1.9-1.27-3.44-2.94-4.59-5.01-1.16-2.07-1.74-4.65-1.74-7.74,0-3.59,1.01-6.86,3.02-9.81,2.01-2.95,5.02-5.31,9.02-7.08,4-1.77,8.98-2.65,14.94-2.65,3.92,0,7.78.41,11.59,1.24,3.81.83,7.23,2.1,10.26,3.81l-5.88,14.15c-2.87-1.43-5.64-2.51-8.32-3.23-2.68-.72-5.29-1.08-7.82-1.08-1.88,0-3.37.17-4.47.5-1.1.33-1.89.77-2.36,1.32-.47.55-.7,1.16-.7,1.82,0,.99.58,1.78,1.74,2.36,1.16.58,2.69,1.06,4.59,1.45,1.9.39,4,.8,6.29,1.24,2.29.44,4.57,1.05,6.83,1.82,2.26.77,4.35,1.79,6.25,3.06,1.9,1.27,3.44,2.93,4.59,4.97,1.16,2.04,1.74,4.58,1.74,7.62,0,3.53-1.01,6.77-3.02,9.73-2.02,2.95-5.01,5.33-8.98,7.12-3.97,1.79-8.97,2.69-14.98,2.69Z"/>
  </g>
</svg>